<?xml version="1.0" encoding="utf-8"?>
<svg viewBox="240.167 235.715 224 28.57" xmlns="http://www.w3.org/2000/svg">
  <path d="M 246.767 257.333 C 245.529 257.333 244.419 257.111 243.438 256.668 C 242.458 256.221 241.682 255.616 241.11 254.851 C 240.538 254.089 240.224 253.245 240.167 252.317 L 244.012 252.317 C 244.084 252.901 244.37 253.381 244.87 253.76 C 245.369 254.142 245.993 254.334 246.738 254.334 C 247.465 254.334 248.033 254.188 248.442 253.896 C 248.851 253.608 249.056 253.237 249.056 252.783 C 249.056 252.291 248.806 251.921 248.306 251.675 C 247.806 251.43 247.011 251.163 245.92 250.875 C 244.792 250.602 243.87 250.32 243.154 250.028 C 242.435 249.737 241.816 249.292 241.297 248.694 C 240.782 248.091 240.525 247.281 240.525 246.263 C 240.525 245.429 240.765 244.666 241.246 243.974 C 241.727 243.285 242.418 242.739 243.319 242.338 C 244.216 241.94 245.275 241.741 246.494 241.741 C 248.293 241.741 249.728 242.19 250.799 243.087 C 251.871 243.989 252.462 245.202 252.572 246.728 L 248.919 246.728 C 248.867 246.13 248.617 245.653 248.17 245.297 C 247.723 244.941 247.129 244.763 246.386 244.763 C 245.693 244.763 245.162 244.892 244.79 245.149 C 244.415 245.403 244.228 245.757 244.228 246.211 C 244.228 246.719 244.483 247.105 244.995 247.37 C 245.502 247.631 246.292 247.898 247.363 248.171 C 248.454 248.444 249.355 248.726 250.067 249.017 C 250.775 249.309 251.388 249.76 251.907 250.369 C 252.422 250.979 252.689 251.783 252.708 252.783 C 252.708 253.654 252.468 254.434 251.987 255.123 C 251.506 255.816 250.815 256.357 249.913 256.748 C 249.016 257.138 247.967 257.333 246.767 257.333 Z M 263.67 245.121 L 260.291 245.121 L 260.291 252.425 C 260.291 252.936 260.412 253.306 260.654 253.533 C 260.901 253.76 261.315 253.874 261.898 253.874 L 263.67 253.874 L 263.67 257.088 L 261.267 257.088 C 258.053 257.088 256.445 255.525 256.445 252.397 L 256.445 245.121 L 254.645 245.121 L 254.645 241.986 L 256.445 241.986 L 256.445 238.248 L 260.291 238.248 L 260.291 241.986 L 263.67 241.986 L 263.67 245.121 Z M 265.439 249.483 C 265.439 247.957 265.744 246.603 266.354 245.422 C 266.963 244.24 267.791 243.332 268.836 242.696 C 269.881 242.059 271.049 241.741 272.34 241.741 C 273.465 241.741 274.451 241.969 275.3 242.423 C 276.144 242.877 276.82 243.449 277.327 244.138 L 277.327 241.986 L 281.173 241.986 L 281.173 257.088 L 277.327 257.088 L 277.327 254.879 C 276.839 255.587 276.163 256.174 275.3 256.64 C 274.436 257.101 273.44 257.333 272.312 257.333 C 271.04 257.333 269.881 257.005 268.836 256.35 C 267.791 255.699 266.963 254.777 266.354 253.584 C 265.744 252.395 265.439 251.028 265.439 249.483 Z M 277.327 249.534 C 277.327 248.61 277.146 247.815 276.782 247.149 C 276.419 246.486 275.928 245.979 275.311 245.626 C 274.694 245.27 274.031 245.092 273.323 245.092 C 272.611 245.092 271.956 245.265 271.358 245.609 C 270.759 245.954 270.273 246.46 269.898 247.126 C 269.527 247.789 269.341 248.574 269.341 249.483 C 269.341 250.392 269.527 251.187 269.898 251.869 C 270.273 252.55 270.763 253.073 271.369 253.436 C 271.979 253.8 272.63 253.981 273.323 253.981 C 274.031 253.981 274.694 253.804 275.311 253.448 C 275.928 253.095 276.419 252.586 276.782 251.92 C 277.146 251.257 277.327 250.462 277.327 249.534 Z M 292.733 245.121 L 289.354 245.121 L 289.354 252.425 C 289.354 252.936 289.475 253.306 289.717 253.533 C 289.963 253.76 290.378 253.874 290.961 253.874 L 292.733 253.874 L 292.733 257.088 L 290.331 257.088 C 287.116 257.088 285.509 255.525 285.509 252.397 L 285.509 245.121 L 283.708 245.121 L 283.708 241.986 L 285.509 241.986 L 285.509 238.248 L 289.354 238.248 L 289.354 241.986 L 292.733 241.986 L 292.733 245.121 Z M 297.422 240.185 C 296.747 240.185 296.189 239.971 295.746 239.543 C 295.299 239.116 295.076 238.583 295.076 237.947 C 295.076 237.311 295.299 236.781 295.746 236.357 C 296.189 235.929 296.747 235.715 297.422 235.715 C 298.095 235.715 298.654 235.929 299.097 236.357 C 299.544 236.781 299.767 237.311 299.767 237.947 C 299.767 238.583 299.544 239.116 299.097 239.543 C 298.654 239.971 298.095 240.185 297.422 240.185 Z M 295.485 241.986 L 299.302 241.986 L 299.302 257.088 L 295.485 257.088 L 295.485 241.986 Z M 302.081 249.534 C 302.081 247.974 302.399 246.607 303.036 245.433 C 303.672 244.259 304.554 243.35 305.682 242.707 C 306.81 242.063 308.102 241.741 309.556 241.741 C 311.426 241.741 312.975 242.209 314.202 243.144 C 315.429 244.08 316.25 245.392 316.667 247.08 L 312.555 247.08 C 312.335 246.429 311.966 245.916 311.447 245.541 C 310.928 245.17 310.289 244.985 309.528 244.985 C 308.437 244.985 307.574 245.38 306.938 246.172 C 306.302 246.959 305.983 248.08 305.983 249.534 C 305.983 250.973 306.302 252.086 306.938 252.874 C 307.574 253.665 308.437 254.061 309.528 254.061 C 311.073 254.061 312.081 253.37 312.555 251.988 L 316.667 251.988 C 316.25 253.624 315.425 254.924 314.191 255.89 C 312.953 256.852 311.408 257.333 309.556 257.333 C 308.102 257.333 306.81 257.011 305.682 256.367 C 304.554 255.72 303.672 254.811 303.036 253.641 C 302.399 252.467 302.081 251.098 302.081 249.534 Z M 325.259 257.333 C 324.02 257.333 322.911 257.111 321.93 256.668 C 320.949 256.221 320.173 255.616 319.602 254.851 C 319.03 254.089 318.715 253.245 318.659 252.317 L 322.504 252.317 C 322.576 252.901 322.862 253.381 323.362 253.76 C 323.861 254.142 324.484 254.334 325.23 254.334 C 325.957 254.334 326.525 254.188 326.934 253.896 C 327.343 253.608 327.548 253.237 327.548 252.783 C 327.548 252.291 327.298 251.921 326.798 251.675 C 326.298 251.43 325.503 251.163 324.412 250.875 C 323.284 250.602 322.362 250.32 321.646 250.028 C 320.927 249.737 320.308 249.292 319.789 248.694 C 319.274 248.091 319.017 247.281 319.017 246.263 C 319.017 245.429 319.257 244.666 319.738 243.974 C 320.218 243.285 320.91 242.739 321.811 242.338 C 322.708 241.94 323.767 241.741 324.986 241.741 C 326.784 241.741 328.22 242.19 329.291 243.087 C 330.363 243.989 330.953 245.202 331.064 246.728 L 327.411 246.728 C 327.358 246.13 327.108 245.653 326.662 245.297 C 326.215 244.941 325.62 244.763 324.878 244.763 C 324.185 244.763 323.653 244.892 323.282 245.149 C 322.907 245.403 322.72 245.757 322.72 246.211 C 322.72 246.719 322.975 247.105 323.487 247.37 C 323.994 247.631 324.783 247.898 325.855 248.171 C 326.946 248.444 327.846 248.726 328.559 249.017 C 329.266 249.309 329.88 249.76 330.399 250.369 C 330.914 250.979 331.181 251.783 331.2 252.783 C 331.2 253.654 330.959 254.434 330.479 255.123 C 329.997 255.816 329.306 256.357 328.405 256.748 C 327.508 257.138 326.459 257.333 325.259 257.333 Z M 334.392 245.746 L 345.951 245.746 L 345.951 248.966 L 334.392 248.966 L 334.392 245.746 Z M 354.047 244.167 C 354.538 243.474 355.217 242.896 356.08 242.434 C 356.943 241.973 357.929 241.741 359.039 241.741 C 360.326 241.741 361.493 242.059 362.538 242.696 C 363.583 243.332 364.41 244.235 365.02 245.405 C 365.63 246.579 365.935 247.938 365.935 249.483 C 365.935 251.028 365.63 252.395 365.02 253.584 C 364.41 254.777 363.583 255.699 362.538 256.35 C 361.493 257.005 360.326 257.333 359.039 257.333 C 357.929 257.333 356.952 257.105 356.108 256.651 C 355.26 256.197 354.573 255.625 354.047 254.936 L 354.047 264.285 L 350.23 264.285 L 350.23 241.986 L 354.047 241.986 L 354.047 244.167 Z M 362.038 249.483 C 362.038 248.574 361.851 247.789 361.476 247.126 C 361.104 246.46 360.614 245.954 360.005 245.609 C 359.395 245.265 358.736 245.092 358.028 245.092 C 357.339 245.092 356.689 245.27 356.08 245.626 C 355.47 245.979 354.98 246.491 354.609 247.166 C 354.234 247.836 354.047 248.625 354.047 249.534 C 354.047 250.443 354.234 251.234 354.609 251.908 C 354.98 252.583 355.47 253.095 356.08 253.448 C 356.689 253.804 357.339 253.981 358.028 253.981 C 358.736 253.981 359.395 253.8 360.005 253.436 C 360.614 253.073 361.104 252.554 361.476 251.88 C 361.851 251.21 362.038 250.411 362.038 249.483 Z M 372.531 244.331 C 373.024 243.529 373.665 242.9 374.457 242.446 C 375.244 241.991 376.148 241.764 377.166 241.764 L 377.166 245.774 L 376.161 245.774 C 374.96 245.774 374.055 246.056 373.446 246.62 C 372.836 247.184 372.531 248.165 372.531 249.563 L 372.531 257.088 L 368.714 257.088 L 368.714 241.986 L 372.531 241.986 L 372.531 244.331 Z M 393.769 249.21 C 393.769 249.756 393.734 250.246 393.661 250.681 L 382.62 250.681 C 382.711 251.772 383.093 252.626 383.767 253.243 C 384.437 253.861 385.263 254.169 386.244 254.169 C 387.664 254.169 388.673 253.561 389.271 252.346 L 393.389 252.346 C 392.953 253.8 392.117 254.994 390.878 255.93 C 389.644 256.865 388.128 257.333 386.329 257.333 C 384.875 257.333 383.57 257.011 382.415 256.367 C 381.261 255.72 380.361 254.805 379.717 253.624 C 379.07 252.442 378.746 251.079 378.746 249.534 C 378.746 247.974 379.064 246.603 379.7 245.422 C 380.336 244.24 381.228 243.332 382.376 242.696 C 383.519 242.059 384.837 241.741 386.329 241.741 C 387.764 241.741 389.049 242.05 390.185 242.667 C 391.321 243.285 392.203 244.161 392.832 245.297 C 393.457 246.433 393.769 247.738 393.769 249.21 Z M 382.648 248.12 L 389.816 248.12 C 389.797 247.139 389.443 246.353 388.754 245.763 C 388.065 245.172 387.221 244.877 386.221 244.877 C 385.274 244.877 384.479 245.162 383.835 245.734 C 383.188 246.306 382.792 247.101 382.648 248.12 Z M 403.474 241.986 L 403.474 245.121 L 400.833 245.121 L 400.833 257.088 L 396.959 257.088 L 396.959 245.121 L 395.244 245.121 L 395.244 241.986 L 396.959 241.986 L 396.959 241.219 C 396.959 239.367 397.487 238.004 398.544 237.129 C 399.596 236.259 401.187 235.85 403.315 235.902 L 403.315 239.123 C 402.387 239.104 401.742 239.258 401.378 239.583 C 401.015 239.912 400.833 240.503 400.833 241.355 L 400.833 241.986 L 403.474 241.986 Z M 419.997 249.21 C 419.997 249.756 419.961 250.246 419.889 250.681 L 408.847 250.681 C 408.938 251.772 409.32 252.626 409.995 253.243 C 410.665 253.861 411.49 254.169 412.471 254.169 C 413.891 254.169 414.9 253.561 415.498 252.346 L 419.616 252.346 C 419.181 253.8 418.344 254.994 417.106 255.93 C 415.872 256.865 414.355 257.333 412.556 257.333 C 411.102 257.333 409.797 257.011 408.643 256.367 C 407.488 255.72 406.588 254.805 405.945 253.624 C 405.297 252.442 404.974 251.079 404.974 249.534 C 404.974 247.974 405.292 246.603 405.928 245.422 C 406.564 244.24 407.456 243.332 408.603 242.696 C 409.746 242.059 411.064 241.741 412.556 241.741 C 413.991 241.741 415.277 242.05 416.413 242.667 C 417.549 243.285 418.431 244.161 419.06 245.297 C 419.684 246.433 419.997 247.738 419.997 249.21 Z M 408.876 248.12 L 416.044 248.12 C 416.025 247.139 415.67 246.353 414.981 245.763 C 414.293 245.172 413.448 244.877 412.448 244.877 C 411.501 244.877 410.706 245.162 410.063 245.734 C 409.415 246.306 409.019 247.101 408.876 248.12 Z M 430.605 245.121 L 427.225 245.121 L 427.225 252.425 C 427.225 252.936 427.346 253.306 427.589 253.533 C 427.834 253.76 428.249 253.874 428.832 253.874 L 430.605 253.874 L 430.605 257.088 L 428.202 257.088 C 424.987 257.088 423.38 255.525 423.38 252.397 L 423.38 245.121 L 421.579 245.121 L 421.579 241.986 L 423.38 241.986 L 423.38 238.248 L 427.225 238.248 L 427.225 241.986 L 430.605 241.986 L 430.605 245.121 Z M 432.373 249.534 C 432.373 247.974 432.691 246.607 433.328 245.433 C 433.964 244.259 434.846 243.35 435.974 242.707 C 437.103 242.063 438.394 241.741 439.848 241.741 C 441.718 241.741 443.267 242.209 444.494 243.144 C 445.721 244.08 446.543 245.392 446.959 247.08 L 442.847 247.08 C 442.627 246.429 442.258 245.916 441.739 245.541 C 441.221 245.17 440.581 244.985 439.82 244.985 C 438.729 244.985 437.866 245.38 437.23 246.172 C 436.593 246.959 436.275 248.08 436.275 249.534 C 436.275 250.973 436.593 252.086 437.23 252.874 C 437.866 253.665 438.729 254.061 439.82 254.061 C 441.365 254.061 442.374 253.37 442.847 251.988 L 446.959 251.988 C 446.543 253.624 445.717 254.924 444.483 255.89 C 443.245 256.852 441.7 257.333 439.848 257.333 C 438.394 257.333 437.103 257.011 435.974 256.367 C 434.846 255.72 433.964 254.811 433.328 253.641 C 432.691 252.467 432.373 251.098 432.373 249.534 Z M 458.277 241.764 C 459.421 241.764 460.438 242.014 461.327 242.514 C 462.221 243.014 462.917 243.75 463.417 244.723 C 463.917 245.696 464.167 246.865 464.167 248.228 L 464.167 257.088 L 460.35 257.088 L 460.35 248.745 C 460.35 247.544 460.049 246.622 459.447 245.979 C 458.849 245.335 458.031 245.013 456.993 245.013 C 455.941 245.013 455.11 245.335 454.5 245.979 C 453.89 246.622 453.585 247.544 453.585 248.745 L 453.585 257.088 L 449.768 257.088 L 449.768 236.913 L 453.585 236.913 L 453.585 243.866 C 454.078 243.211 454.733 242.697 455.551 242.326 C 456.369 241.952 457.277 241.764 458.277 241.764 Z" style="white-space: pre; fill: rgb(0, 60, 255);"/>
</svg>