<?xml version="1.0" encoding="utf-8"?>
<svg viewBox="0 0 1280 640" fill="none" xmlns="http://www.w3.org/2000/svg" xmlns:xlink="http://www.w3.org/1999/xlink">
  <defs>
    <clipPath id="clip0">
      <rect width="80" height="62.7027" fill="white" transform="translate(50 50)"/>
    </clipPath>
    <clipPath id="clip1">
      <rect width="80" height="62.7027" fill="white" transform="translate(1150 527)"/>
    </clipPath>
    <linearGradient x1="-666.11664" y1="413.04492" x2="-553.2699" y2="525.90759" id="linearGradient3005" gradientUnits="userSpaceOnUse" gradientTransform="matrix(0.38871, 0, 0, 0.388654, 1425.426367, -92.617254)" xlink:href="#linearGradient8385"/>
    <linearGradient id="linearGradient8385">
      <stop id="stop8387" style="stop-color:#000000;stop-opacity:1" offset="0"/>
      <stop id="stop8389" style="stop-color:#ffffff;stop-opacity:1" offset="1"/>
    </linearGradient>
    <linearGradient x1="-553.26971" y1="525.90778" x2="-666.11639" y2="413.0452" id="linearGradient3002" gradientUnits="userSpaceOnUse" gradientTransform="matrix(0.38871, 0, 0, 0.388654, 1425.426367, -92.617254)" xlink:href="#linearGradient8385"/>
    <linearGradient x1="-666.11664" y1="413.04492" x2="-553.2699" y2="525.90759" id="linearGradient8385-1" gradientUnits="userSpaceOnUse" gradientTransform="matrix(0.38871, 0, 0, 0.388654, 326.63208, 367.467033)" xlink:href="#linearGradient8385"/>
    <linearGradient x1="-553.26971" y1="525.90778" x2="-666.11639" y2="413.0452" id="linearGradient8385-2" gradientUnits="userSpaceOnUse" gradientTransform="matrix(0.38871, 0, 0, 0.388654, 326.63208, 367.467033)" xlink:href="#linearGradient8385"/>
  </defs>
  <rect width="1280" height="640" fill="white"/>
  <g clip-path="url(#clip0)">
    <path d="M95.5842 67.2693L92.8465 72.2569L83.4835 55.1954L54.7408 107.564H74.2015C74.2015 110.319 76.324 112.552 78.9423 112.552H54.7408C53.0472 112.552 51.4825 111.601 50.6359 110.058C49.7892 108.515 49.7893 106.614 50.6361 105.071L79.3788 52.7016C80.2256 51.1584 81.7907 50.2077 83.4845 50.2077C85.1782 50.2077 86.7433 51.1584 87.5902 52.7016L95.5842 67.2693Z" fill="#00C58E"/>
    <path d="M116.333 105.071L98.322 72.2569L95.5842 67.2693L92.8464 72.2569L74.8375 105.071C73.9907 106.614 73.9907 108.515 74.8373 110.058C75.6839 111.601 77.2487 112.552 78.9422 112.552H112.222C113.916 112.552 115.481 111.602 116.329 110.059C117.176 108.516 117.176 106.614 116.329 105.071H116.333ZM78.9422 107.564L95.5842 77.2444L112.222 107.564H78.9422L78.9422 107.564Z" fill="#2F495E"/>
    <path d="M129.21 110.058C128.363 111.601 126.799 112.552 125.105 112.552H112.222C114.84 112.552 116.963 110.319 116.963 107.564H125.095L102.02 65.5175L98.322 72.2569L95.5842 67.2694L97.9151 63.0237C98.7619 61.4805 100.327 60.5298 102.021 60.5298C103.714 60.5298 105.28 61.4805 106.126 63.0237L129.21 105.071C130.057 106.614 130.057 108.515 129.21 110.058Z" fill="#108775"/>
  </g>
  <g clip-path="url(#clip1)">
    <path d="M1195.58 544.269L1192.85 549.257L1183.48 532.195L1154.74 584.564H1174.2C1174.2 587.319 1176.32 589.552 1178.94 589.552H1154.74C1153.05 589.552 1151.48 588.601 1150.64 587.058C1149.79 585.515 1149.79 583.614 1150.64 582.071L1179.38 529.702C1180.23 528.158 1181.79 527.208 1183.48 527.208C1185.18 527.208 1186.74 528.158 1187.59 529.702L1195.58 544.269Z" fill="#00C58E"/>
    <path d="M1216.33 582.071L1198.32 549.257L1195.58 544.269L1192.85 549.257L1174.84 582.071C1173.99 583.614 1173.99 585.515 1174.84 587.058C1175.68 588.601 1177.25 589.552 1178.94 589.552H1212.22C1213.92 589.552 1215.48 588.602 1216.33 587.059C1217.18 585.516 1217.18 583.614 1216.33 582.071H1216.33ZM1178.94 584.564L1195.58 554.244L1212.22 584.564H1178.94L1178.94 584.564Z" fill="#2F495E"/>
    <path d="M1229.21 587.058C1228.36 588.601 1226.8 589.552 1225.11 589.552H1212.22C1214.84 589.552 1216.96 587.319 1216.96 584.564H1225.1L1202.02 542.517L1198.32 549.257L1195.58 544.269L1197.92 540.024C1198.76 538.48 1200.33 537.53 1202.02 537.53C1203.71 537.53 1205.28 538.48 1206.13 540.024L1229.21 582.071C1230.06 583.614 1230.06 585.515 1229.21 587.058Z" fill="#108775"/>
  </g>
  <path d="M 320.212 299.352 C 318.032 299.352 316.079 298.962 314.352 298.182 C 312.625 297.395 311.259 296.329 310.252 294.982 C 309.245 293.642 308.692 292.155 308.592 290.522 L 315.362 290.522 C 315.489 291.549 315.992 292.395 316.872 293.062 C 317.752 293.735 318.849 294.072 320.162 294.072 C 321.442 294.072 322.442 293.815 323.162 293.302 C 323.882 292.795 324.242 292.142 324.242 291.342 C 324.242 290.475 323.802 289.825 322.922 289.392 C 322.042 288.959 320.642 288.489 318.722 287.982 C 316.735 287.502 315.112 287.005 313.852 286.492 C 312.585 285.979 311.495 285.195 310.582 284.142 C 309.675 283.082 309.222 281.655 309.222 279.862 C 309.222 278.395 309.645 277.052 310.492 275.832 C 311.339 274.619 312.555 273.659 314.142 272.952 C 315.722 272.252 317.585 271.902 319.732 271.902 C 322.899 271.902 325.425 272.692 327.312 274.272 C 329.199 275.859 330.239 277.995 330.432 280.682 L 324.002 280.682 C 323.909 279.629 323.469 278.789 322.682 278.162 C 321.895 277.535 320.849 277.222 319.542 277.222 C 318.322 277.222 317.385 277.449 316.732 277.902 C 316.072 278.349 315.742 278.972 315.742 279.772 C 315.742 280.665 316.192 281.345 317.092 281.812 C 317.985 282.272 319.375 282.742 321.262 283.222 C 323.182 283.702 324.769 284.199 326.022 284.712 C 327.269 285.225 328.349 286.019 329.262 287.092 C 330.169 288.165 330.639 289.582 330.672 291.342 C 330.672 292.875 330.249 294.249 329.402 295.462 C 328.555 296.682 327.339 297.635 325.752 298.322 C 324.172 299.009 322.325 299.352 320.212 299.352 ZM 336.192 263.402 L 342.912 263.402 L 342.912 298.922 L 336.192 298.922 L 336.192 263.402 ZM 353.906 272.332 L 360.626 292.732 L 367.346 272.332 L 374.496 272.332 L 364.656 298.922 L 356.496 298.922 L 346.706 272.332 L 353.906 272.332 ZM 385.008 276.462 C 385.875 275.049 387.005 273.942 388.398 273.142 C 389.785 272.342 391.375 271.942 393.168 271.942 L 393.168 279.002 L 391.398 279.002 C 389.285 279.002 387.691 279.499 386.618 280.492 C 385.545 281.485 385.008 283.212 385.008 285.672 L 385.008 298.922 L 378.288 298.922 L 378.288 272.332 L 385.008 272.332 L 385.008 276.462 ZM 395.95 285.532 C 395.95 282.845 396.487 280.462 397.56 278.382 C 398.634 276.302 400.097 274.702 401.95 273.582 C 403.81 272.462 405.877 271.902 408.15 271.902 C 409.877 271.902 411.524 272.275 413.09 273.022 C 414.657 273.775 415.904 274.775 416.83 276.022 L 416.83 263.402 L 423.65 263.402 L 423.65 298.922 L 416.83 298.922 L 416.83 294.982 C 416.004 296.295 414.837 297.352 413.33 298.152 C 411.824 298.952 410.08 299.352 408.1 299.352 C 405.86 299.352 403.81 298.775 401.95 297.622 C 400.097 296.475 398.634 294.852 397.56 292.752 C 396.487 290.659 395.95 288.252 395.95 285.532 Z M 416.88 285.622 C 416.88 283.995 416.56 282.595 415.92 281.422 C 415.28 280.255 414.417 279.362 413.33 278.742 C 412.244 278.115 411.077 277.802 409.83 277.802 C 408.577 277.802 407.424 278.105 406.37 278.712 C 405.317 279.319 404.46 280.209 403.8 281.382 C 403.147 282.549 402.82 283.932 402.82 285.532 C 402.82 287.132 403.147 288.532 403.8 289.732 C 404.46 290.932 405.324 291.852 406.39 292.492 C 407.464 293.132 408.61 293.452 409.83 293.452 C 411.077 293.452 412.244 293.139 413.33 292.512 C 414.417 291.892 415.28 290.995 415.92 289.822 C 416.56 288.655 416.88 287.255 416.88 285.622 ZM 433.634 269.162 C 432.448 269.162 431.464 268.785 430.684 268.032 C 429.898 267.279 429.504 266.342 429.504 265.222 C 429.504 264.102 429.898 263.169 430.684 262.422 C 431.464 261.669 432.448 261.292 433.634 261.292 C 434.821 261.292 435.804 261.669 436.584 262.422 C 437.371 263.169 437.764 264.102 437.764 265.222 C 437.764 266.342 437.371 267.279 436.584 268.032 C 435.804 268.785 434.821 269.162 433.634 269.162 Z M 430.224 272.332 L 436.944 272.332 L 436.944 298.922 L 430.224 298.922 L 430.224 272.332 ZM 453.988 271.902 C 455.968 271.902 457.712 272.292 459.218 273.072 C 460.725 273.859 461.908 274.875 462.768 276.122 L 462.768 272.332 L 469.538 272.332 L 469.538 299.112 C 469.538 301.579 469.042 303.779 468.048 305.712 C 467.055 307.652 465.568 309.189 463.588 310.322 C 461.602 311.455 459.202 312.022 456.388 312.022 C 452.608 312.022 449.512 311.142 447.098 309.382 C 444.685 307.622 443.318 305.222 442.998 302.182 L 449.668 302.182 C 450.022 303.402 450.782 304.372 451.948 305.092 C 453.115 305.812 454.532 306.172 456.198 306.172 C 458.145 306.172 459.728 305.589 460.948 304.422 C 462.162 303.249 462.768 301.479 462.768 299.112 L 462.768 294.982 C 461.908 296.235 460.718 297.275 459.198 298.102 C 457.678 298.935 455.942 299.352 453.988 299.352 C 451.748 299.352 449.698 298.775 447.838 297.622 C 445.985 296.475 444.522 294.852 443.448 292.752 C 442.375 290.659 441.838 288.252 441.838 285.532 C 441.838 282.845 442.375 280.462 443.448 278.382 C 444.522 276.302 445.978 274.702 447.818 273.582 C 449.658 272.462 451.715 271.902 453.988 271.902 Z M 462.768 285.622 C 462.768 283.995 462.448 282.595 461.808 281.422 C 461.168 280.255 460.305 279.362 459.218 278.742 C 458.132 278.115 456.965 277.802 455.718 277.802 C 454.465 277.802 453.312 278.105 452.258 278.712 C 451.205 279.319 450.348 280.209 449.688 281.382 C 449.035 282.549 448.708 283.932 448.708 285.532 C 448.708 287.132 449.035 288.532 449.688 289.732 C 450.348 290.932 451.212 291.852 452.278 292.492 C 453.352 293.132 454.498 293.452 455.718 293.452 C 456.965 293.452 458.132 293.139 459.218 292.512 C 460.305 291.892 461.168 290.995 461.808 289.822 C 462.448 288.655 462.768 287.255 462.768 285.622 ZM 479.522 269.162 C 478.336 269.162 477.352 268.785 476.572 268.032 C 475.786 267.279 475.392 266.342 475.392 265.222 C 475.392 264.102 475.786 263.169 476.572 262.422 C 477.352 261.669 478.336 261.292 479.522 261.292 C 480.709 261.292 481.692 261.669 482.472 262.422 C 483.259 263.169 483.652 264.102 483.652 265.222 C 483.652 266.342 483.259 267.279 482.472 268.032 C 481.692 268.785 480.709 269.162 479.522 269.162 Z M 476.112 272.332 L 482.832 272.332 L 482.832 298.922 L 476.112 298.922 L 476.112 272.332 ZM 503.236 277.852 L 497.286 277.852 L 497.286 290.712 C 497.286 291.612 497.5 292.262 497.926 292.662 C 498.36 293.062 499.09 293.262 500.116 293.262 L 503.236 293.262 L 503.236 298.922 L 499.006 298.922 C 493.346 298.922 490.516 296.169 490.516 290.662 L 490.516 277.852 L 487.346 277.852 L 487.346 272.332 L 490.516 272.332 L 490.516 265.752 L 497.286 265.752 L 497.286 272.332 L 503.236 272.332 L 503.236 277.852 ZM 506.35 285.532 C 506.35 282.845 506.887 280.462 507.96 278.382 C 509.034 276.302 510.49 274.702 512.33 273.582 C 514.17 272.462 516.227 271.902 518.5 271.902 C 520.48 271.902 522.217 272.302 523.71 273.102 C 525.197 273.902 526.387 274.909 527.28 276.122 L 527.28 272.332 L 534.05 272.332 L 534.05 298.922 L 527.28 298.922 L 527.28 295.032 C 526.42 296.279 525.23 297.312 523.71 298.132 C 522.19 298.945 520.437 299.352 518.45 299.352 C 516.21 299.352 514.17 298.775 512.33 297.622 C 510.49 296.475 509.034 294.852 507.96 292.752 C 506.887 290.659 506.35 288.252 506.35 285.532 Z M 527.28 285.622 C 527.28 283.995 526.96 282.595 526.32 281.422 C 525.68 280.255 524.817 279.362 523.73 278.742 C 522.644 278.115 521.477 277.802 520.23 277.802 C 518.977 277.802 517.824 278.105 516.77 278.712 C 515.717 279.319 514.86 280.209 514.2 281.382 C 513.547 282.549 513.22 283.932 513.22 285.532 C 513.22 287.132 513.547 288.532 514.2 289.732 C 514.86 290.932 515.724 291.852 516.79 292.492 C 517.864 293.132 519.01 293.452 520.23 293.452 C 521.477 293.452 522.644 293.139 523.73 292.512 C 524.817 291.892 525.68 290.995 526.32 289.822 C 526.96 288.655 527.28 287.255 527.28 285.622 ZM 540.624 263.402 L 547.344 263.402 L 547.344 298.922 L 540.624 298.922 L 540.624 263.402 ZM 565.398 253.462 L 571.968 253.462 L 559.008 307.612 L 552.438 307.612 L 565.398 253.462 Z" transform="matrix(1, 0, 0, 1, 0, 0)" style="fill: rgb(0, 0, 0); white-space: pre;"/>
  <path d="M 587.476 299.352 C 585.296 299.352 583.343 298.962 581.616 298.182 C 579.89 297.395 578.523 296.329 577.516 294.982 C 576.51 293.642 575.956 292.155 575.856 290.522 L 582.626 290.522 C 582.753 291.549 583.256 292.395 584.136 293.062 C 585.016 293.735 586.113 294.072 587.426 294.072 C 588.706 294.072 589.706 293.815 590.426 293.302 C 591.146 292.795 591.506 292.142 591.506 291.342 C 591.506 290.475 591.066 289.825 590.186 289.392 C 589.306 288.959 587.906 288.489 585.986 287.982 C 584 287.502 582.376 287.005 581.116 286.492 C 579.85 285.979 578.76 285.195 577.846 284.142 C 576.94 283.082 576.486 281.655 576.486 279.862 C 576.486 278.395 576.91 277.052 577.756 275.832 C 578.603 274.619 579.82 273.659 581.406 272.952 C 582.986 272.252 584.85 271.902 586.996 271.902 C 590.163 271.902 592.69 272.692 594.576 274.272 C 596.463 275.859 597.503 277.995 597.696 280.682 L 591.266 280.682 C 591.173 279.629 590.733 278.789 589.946 278.162 C 589.16 277.535 588.113 277.222 586.806 277.222 C 585.586 277.222 584.65 277.449 583.996 277.902 C 583.336 278.349 583.006 278.972 583.006 279.772 C 583.006 280.665 583.456 281.345 584.356 281.812 C 585.25 282.272 586.64 282.742 588.526 283.222 C 590.446 283.702 592.033 284.199 593.286 284.712 C 594.533 285.225 595.613 286.019 596.526 287.092 C 597.433 288.165 597.903 289.582 597.936 291.342 C 597.936 292.875 597.513 294.249 596.666 295.462 C 595.82 296.682 594.603 297.635 593.016 298.322 C 591.436 299.009 589.59 299.352 587.476 299.352 ZM 617.236 277.852 L 611.286 277.852 L 611.286 290.712 C 611.286 291.612 611.5 292.262 611.926 292.662 C 612.36 293.062 613.09 293.262 614.116 293.262 L 617.236 293.262 L 617.236 298.922 L 613.006 298.922 C 607.346 298.922 604.516 296.169 604.516 290.662 L 604.516 277.852 L 601.346 277.852 L 601.346 272.332 L 604.516 272.332 L 604.516 265.752 L 611.286 265.752 L 611.286 272.332 L 617.236 272.332 L 617.236 277.852 ZM 620.351 285.532 C 620.351 282.845 620.887 280.462 621.961 278.382 C 623.034 276.302 624.491 274.702 626.331 273.582 C 628.171 272.462 630.227 271.902 632.501 271.902 C 634.481 271.902 636.217 272.302 637.711 273.102 C 639.197 273.902 640.387 274.909 641.281 276.122 L 641.281 272.332 L 648.051 272.332 L 648.051 298.922 L 641.281 298.922 L 641.281 295.032 C 640.421 296.279 639.231 297.312 637.711 298.132 C 636.191 298.945 634.437 299.352 632.451 299.352 C 630.211 299.352 628.171 298.775 626.331 297.622 C 624.491 296.475 623.034 294.852 621.961 292.752 C 620.887 290.659 620.351 288.252 620.351 285.532 Z M 641.281 285.622 C 641.281 283.995 640.961 282.595 640.321 281.422 C 639.681 280.255 638.817 279.362 637.731 278.742 C 636.644 278.115 635.477 277.802 634.231 277.802 C 632.977 277.802 631.824 278.105 630.771 278.712 C 629.717 279.319 628.861 280.209 628.201 281.382 C 627.547 282.549 627.221 283.932 627.221 285.532 C 627.221 287.132 627.547 288.532 628.201 289.732 C 628.861 290.932 629.724 291.852 630.791 292.492 C 631.864 293.132 633.011 293.452 634.231 293.452 C 635.477 293.452 636.644 293.139 637.731 292.512 C 638.817 291.892 639.681 290.995 640.321 289.822 C 640.961 288.655 641.281 287.255 641.281 285.622 ZM 668.405 277.852 L 662.455 277.852 L 662.455 290.712 C 662.455 291.612 662.668 292.262 663.095 292.662 C 663.528 293.062 664.258 293.262 665.285 293.262 L 668.405 293.262 L 668.405 298.922 L 664.175 298.922 C 658.515 298.922 655.685 296.169 655.685 290.662 L 655.685 277.852 L 652.515 277.852 L 652.515 272.332 L 655.685 272.332 L 655.685 265.752 L 662.455 265.752 L 662.455 272.332 L 668.405 272.332 L 668.405 277.852 ZM 676.659 269.162 C 675.472 269.162 674.489 268.785 673.709 268.032 C 672.922 267.279 672.529 266.342 672.529 265.222 C 672.529 264.102 672.922 263.169 673.709 262.422 C 674.489 261.669 675.472 261.292 676.659 261.292 C 677.845 261.292 678.829 261.669 679.609 262.422 C 680.395 263.169 680.789 264.102 680.789 265.222 C 680.789 266.342 680.395 267.279 679.609 268.032 C 678.829 268.785 677.845 269.162 676.659 269.162 Z M 673.249 272.332 L 679.969 272.332 L 679.969 298.922 L 673.249 298.922 L 673.249 272.332 ZM 684.863 285.622 C 684.863 282.875 685.423 280.469 686.543 278.402 C 687.663 276.335 689.216 274.735 691.203 273.602 C 693.189 272.469 695.463 271.902 698.023 271.902 C 701.316 271.902 704.043 272.725 706.203 274.372 C 708.363 276.019 709.809 278.329 710.543 281.302 L 703.303 281.302 C 702.916 280.155 702.266 279.252 701.353 278.592 C 700.439 277.939 699.313 277.612 697.973 277.612 C 696.053 277.612 694.533 278.309 693.413 279.702 C 692.293 281.089 691.733 283.062 691.733 285.622 C 691.733 288.155 692.293 290.115 693.413 291.502 C 694.533 292.895 696.053 293.592 697.973 293.592 C 700.693 293.592 702.469 292.375 703.303 289.942 L 710.543 289.942 C 709.809 292.822 708.356 295.112 706.183 296.812 C 704.003 298.505 701.283 299.352 698.023 299.352 C 695.463 299.352 693.189 298.785 691.203 297.652 C 689.216 296.512 687.663 294.912 686.543 292.852 C 685.423 290.785 684.863 288.375 684.863 285.622 ZM 725.669 299.352 C 723.489 299.352 721.535 298.962 719.809 298.182 C 718.082 297.395 716.715 296.329 715.709 294.982 C 714.702 293.642 714.149 292.155 714.049 290.522 L 720.819 290.522 C 720.945 291.549 721.449 292.395 722.329 293.062 C 723.209 293.735 724.305 294.072 725.619 294.072 C 726.899 294.072 727.899 293.815 728.619 293.302 C 729.339 292.795 729.699 292.142 729.699 291.342 C 729.699 290.475 729.259 289.825 728.379 289.392 C 727.499 288.959 726.099 288.489 724.179 287.982 C 722.192 287.502 720.569 287.005 719.309 286.492 C 718.042 285.979 716.952 285.195 716.039 284.142 C 715.132 283.082 714.679 281.655 714.679 279.862 C 714.679 278.395 715.102 277.052 715.949 275.832 C 716.795 274.619 718.012 273.659 719.599 272.952 C 721.179 272.252 723.042 271.902 725.189 271.902 C 728.355 271.902 730.882 272.692 732.769 274.272 C 734.655 275.859 735.695 277.995 735.889 280.682 L 729.459 280.682 C 729.365 279.629 728.925 278.789 728.139 278.162 C 727.352 277.535 726.305 277.222 724.999 277.222 C 723.779 277.222 722.842 277.449 722.189 277.902 C 721.529 278.349 721.199 278.972 721.199 279.772 C 721.199 280.665 721.649 281.345 722.549 281.812 C 723.442 282.272 724.832 282.742 726.719 283.222 C 728.639 283.702 730.225 284.199 731.479 284.712 C 732.725 285.225 733.805 286.019 734.719 287.092 C 735.625 288.165 736.095 289.582 736.129 291.342 C 736.129 292.875 735.705 294.249 734.859 295.462 C 734.012 296.682 732.795 297.635 731.209 298.322 C 729.629 299.009 727.782 299.352 725.669 299.352 ZM 741.749 278.952 L 762.099 278.952 L 762.099 284.622 L 741.749 284.622 L 741.749 278.952 ZM 776.353 276.172 C 777.219 274.952 778.413 273.935 779.933 273.122 C 781.453 272.309 783.189 271.902 785.143 271.902 C 787.409 271.902 789.463 272.462 791.303 273.582 C 793.143 274.702 794.599 276.292 795.673 278.352 C 796.746 280.419 797.283 282.812 797.283 285.532 C 797.283 288.252 796.746 290.659 795.673 292.752 C 794.599 294.852 793.143 296.475 791.303 297.622 C 789.463 298.775 787.409 299.352 785.143 299.352 C 783.189 299.352 781.469 298.952 779.983 298.152 C 778.489 297.352 777.279 296.345 776.353 295.132 L 776.353 311.592 L 769.633 311.592 L 769.633 272.332 L 776.353 272.332 L 776.353 276.172 Z M 790.423 285.532 C 790.423 283.932 790.093 282.549 789.433 281.382 C 788.779 280.209 787.916 279.319 786.843 278.712 C 785.769 278.105 784.609 277.802 783.363 277.802 C 782.149 277.802 781.006 278.115 779.933 278.742 C 778.859 279.362 777.996 280.265 777.343 281.452 C 776.683 282.632 776.353 284.022 776.353 285.622 C 776.353 287.222 776.683 288.615 777.343 289.802 C 777.996 290.989 778.859 291.892 779.933 292.512 C 781.006 293.139 782.149 293.452 783.363 293.452 C 784.609 293.452 785.769 293.132 786.843 292.492 C 787.916 291.852 788.779 290.939 789.433 289.752 C 790.093 288.572 790.423 287.165 790.423 285.532 ZM 808.897 276.462 C 809.764 275.049 810.894 273.942 812.287 273.142 C 813.674 272.342 815.264 271.942 817.057 271.942 L 817.057 279.002 L 815.287 279.002 C 813.174 279.002 811.58 279.499 810.507 280.492 C 809.434 281.485 808.897 283.212 808.897 285.672 L 808.897 298.922 L 802.177 298.922 L 802.177 272.332 L 808.897 272.332 L 808.897 276.462 ZM 846.289 285.052 C 846.289 286.012 846.226 286.875 846.099 287.642 L 826.659 287.642 C 826.819 289.562 827.492 291.065 828.679 292.152 C 829.859 293.239 831.312 293.782 833.039 293.782 C 835.539 293.782 837.316 292.712 838.369 290.572 L 845.619 290.572 C 844.852 293.132 843.379 295.235 841.199 296.882 C 839.026 298.529 836.356 299.352 833.189 299.352 C 830.629 299.352 828.332 298.785 826.299 297.652 C 824.266 296.512 822.682 294.902 821.549 292.822 C 820.409 290.742 819.839 288.342 819.839 285.622 C 819.839 282.875 820.399 280.462 821.519 278.382 C 822.639 276.302 824.209 274.702 826.229 273.582 C 828.242 272.462 830.562 271.902 833.189 271.902 C 835.716 271.902 837.979 272.445 839.979 273.532 C 841.979 274.619 843.532 276.162 844.639 278.162 C 845.739 280.162 846.289 282.459 846.289 285.052 Z M 826.709 283.132 L 839.329 283.132 C 839.296 281.405 838.672 280.022 837.459 278.982 C 836.246 277.942 834.759 277.422 832.999 277.422 C 831.332 277.422 829.932 277.925 828.799 278.932 C 827.659 279.939 826.962 281.339 826.709 283.132 ZM 863.375 272.332 L 863.375 277.852 L 858.725 277.852 L 858.725 298.922 L 851.905 298.922 L 851.905 277.852 L 848.885 277.852 L 848.885 272.332 L 851.905 272.332 L 851.905 270.982 C 851.905 267.722 852.835 265.322 854.695 263.782 C 856.548 262.249 859.348 261.529 863.095 261.622 L 863.095 267.292 C 861.462 267.259 860.325 267.529 859.685 268.102 C 859.045 268.682 858.725 269.722 858.725 271.222 L 858.725 272.332 L 863.375 272.332 ZM 892.465 285.052 C 892.465 286.012 892.402 286.875 892.275 287.642 L 872.835 287.642 C 872.995 289.562 873.668 291.065 874.855 292.152 C 876.035 293.239 877.488 293.782 879.215 293.782 C 881.715 293.782 883.492 292.712 884.545 290.572 L 891.795 290.572 C 891.028 293.132 889.555 295.235 887.375 296.882 C 885.202 298.529 882.532 299.352 879.365 299.352 C 876.805 299.352 874.508 298.785 872.475 297.652 C 870.442 296.512 868.858 294.902 867.725 292.822 C 866.585 290.742 866.015 288.342 866.015 285.622 C 866.015 282.875 866.575 280.462 867.695 278.382 C 868.815 276.302 870.385 274.702 872.405 273.582 C 874.418 272.462 876.738 271.902 879.365 271.902 C 881.892 271.902 884.155 272.445 886.155 273.532 C 888.155 274.619 889.708 276.162 890.815 278.162 C 891.915 280.162 892.465 282.459 892.465 285.052 Z M 872.885 283.132 L 885.505 283.132 C 885.472 281.405 884.848 280.022 883.635 278.982 C 882.422 277.942 880.935 277.422 879.175 277.422 C 877.508 277.422 876.108 277.925 874.975 278.932 C 873.835 279.939 873.138 281.339 872.885 283.132 ZM 911.141 277.852 L 905.191 277.852 L 905.191 290.712 C 905.191 291.612 905.404 292.262 905.831 292.662 C 906.264 293.062 906.994 293.262 908.021 293.262 L 911.141 293.262 L 911.141 298.922 L 906.911 298.922 C 901.251 298.922 898.421 296.169 898.421 290.662 L 898.421 277.852 L 895.251 277.852 L 895.251 272.332 L 898.421 272.332 L 898.421 265.752 L 905.191 265.752 L 905.191 272.332 L 911.141 272.332 L 911.141 277.852 ZM 914.255 285.622 C 914.255 282.875 914.815 280.469 915.935 278.402 C 917.055 276.335 918.608 274.735 920.595 273.602 C 922.582 272.469 924.855 271.902 927.415 271.902 C 930.708 271.902 933.435 272.725 935.595 274.372 C 937.755 276.019 939.202 278.329 939.935 281.302 L 932.695 281.302 C 932.308 280.155 931.658 279.252 930.745 278.592 C 929.832 277.939 928.705 277.612 927.365 277.612 C 925.445 277.612 923.925 278.309 922.805 279.702 C 921.685 281.089 921.125 283.062 921.125 285.622 C 921.125 288.155 921.685 290.115 922.805 291.502 C 923.925 292.895 925.445 293.592 927.365 293.592 C 930.085 293.592 931.862 292.375 932.695 289.942 L 939.935 289.942 C 939.202 292.822 937.748 295.112 935.575 296.812 C 933.395 298.505 930.675 299.352 927.415 299.352 C 924.855 299.352 922.582 298.785 920.595 297.652 C 918.608 296.512 917.055 294.912 915.935 292.852 C 914.815 290.785 914.255 288.375 914.255 285.622 ZM 959.861 271.942 C 961.875 271.942 963.665 272.382 965.231 273.262 C 966.805 274.142 968.031 275.439 968.911 277.152 C 969.791 278.865 970.231 280.922 970.231 283.322 L 970.231 298.922 L 963.511 298.922 L 963.511 284.232 C 963.511 282.119 962.981 280.495 961.921 279.362 C 960.868 278.229 959.428 277.662 957.601 277.662 C 955.748 277.662 954.285 278.229 953.211 279.362 C 952.138 280.495 951.601 282.119 951.601 284.232 L 951.601 298.922 L 944.881 298.922 L 944.881 263.402 L 951.601 263.402 L 951.601 275.642 C 952.468 274.489 953.621 273.585 955.061 272.932 C 956.501 272.272 958.101 271.942 959.861 271.942 Z" transform="matrix(1, 0, 0, 1, 0, 0)" style="fill: rgb(2, 35, 143); white-space: pre;"/>
  <path d="M 213.051 330.04 L 221.051 330.04 C 222.864 330.04 224.401 330.317 225.661 330.87 C 226.928 331.423 227.888 332.24 228.541 333.32 C 229.201 334.4 229.531 335.723 229.531 337.29 C 229.531 338.397 229.308 339.403 228.861 340.31 C 228.414 341.223 227.768 342 226.921 342.64 C 226.081 343.28 225.081 343.757 223.921 344.07 L 223.021 344.42 L 215.521 344.42 L 215.491 341.83 L 221.131 341.83 C 222.284 341.83 223.241 341.623 224.001 341.21 C 224.768 340.803 225.341 340.257 225.721 339.57 C 226.101 338.883 226.291 338.123 226.291 337.29 C 226.291 335.883 225.878 334.757 225.051 333.91 C 224.218 333.063 222.884 332.64 221.051 332.64 L 216.271 332.64 L 216.271 354.21 L 213.051 354.21 L 213.051 330.04 Z M 227.141 354.21 L 221.281 343.25 L 224.651 343.25 L 230.591 354.01 L 230.591 354.21 L 227.141 354.21 ZM 240.966 354.54 C 239.299 354.54 237.849 354.167 236.616 353.42 C 235.382 352.673 234.422 351.647 233.736 350.34 C 233.056 349.033 232.716 347.54 232.716 345.86 L 232.716 345.15 C 232.716 343.197 233.089 341.533 233.836 340.16 C 234.589 338.78 235.566 337.727 236.766 337 C 237.966 336.28 239.236 335.92 240.576 335.92 C 242.302 335.92 243.709 336.303 244.796 337.07 C 245.889 337.837 246.692 338.883 247.206 340.21 C 247.719 341.53 247.976 343.027 247.976 344.7 L 247.976 346.08 L 234.566 346.08 L 234.566 343.58 L 244.876 343.58 L 244.876 343.35 C 244.829 342.557 244.666 341.78 244.386 341.02 C 244.112 340.26 243.672 339.633 243.066 339.14 C 242.452 338.653 241.622 338.41 240.576 338.41 C 239.642 338.41 238.819 338.67 238.106 339.19 C 237.392 339.717 236.832 340.48 236.426 341.48 C 236.026 342.487 235.826 343.71 235.826 345.15 L 235.826 345.86 C 235.826 347 236.036 348.037 236.456 348.97 C 236.876 349.91 237.486 350.657 238.286 351.21 C 239.079 351.77 240.029 352.05 241.136 352.05 C 242.222 352.05 243.142 351.83 243.896 351.39 C 244.649 350.943 245.306 350.35 245.866 349.61 L 247.746 351.07 C 247.172 351.957 246.346 352.757 245.266 353.47 C 244.186 354.183 242.752 354.54 240.966 354.54 ZM 262.871 350.72 L 262.871 328.71 L 265.971 328.71 L 265.971 354.21 L 263.131 354.21 L 262.871 350.72 Z M 250.801 345.43 L 250.801 345.08 C 250.801 343.253 251.098 341.65 251.691 340.27 C 252.278 338.897 253.105 337.827 254.171 337.06 C 255.231 336.3 256.475 335.92 257.901 335.92 C 259.408 335.92 260.665 336.263 261.671 336.95 C 262.678 337.643 263.468 338.627 264.041 339.9 C 264.608 341.173 264.975 342.69 265.141 344.45 L 265.141 346.06 C 264.975 347.8 264.611 349.303 264.051 350.57 C 263.485 351.837 262.695 352.813 261.681 353.5 C 260.668 354.193 259.398 354.54 257.871 354.54 C 256.465 354.54 255.231 354.147 254.171 353.36 C 253.105 352.567 252.278 351.483 251.691 350.11 C 251.098 348.737 250.801 347.177 250.801 345.43 Z M 253.901 345.08 L 253.901 345.43 C 253.901 346.623 254.065 347.713 254.391 348.7 C 254.718 349.687 255.231 350.473 255.931 351.06 C 256.625 351.653 257.525 351.95 258.631 351.95 C 259.651 351.95 260.491 351.733 261.151 351.3 C 261.811 350.873 262.338 350.303 262.731 349.59 C 263.131 348.883 263.441 348.117 263.661 347.29 L 263.661 343.25 C 263.528 342.643 263.338 342.053 263.091 341.48 C 262.845 340.913 262.525 340.407 262.131 339.96 C 261.738 339.513 261.255 339.157 260.681 338.89 C 260.115 338.623 259.445 338.49 258.671 338.49 C 257.551 338.49 256.641 338.787 255.941 339.38 C 255.235 339.98 254.718 340.78 254.391 341.78 C 254.065 342.787 253.901 343.887 253.901 345.08 ZM 281.723 350.06 L 281.723 336.25 L 284.833 336.25 L 284.833 354.21 L 281.873 354.21 L 281.723 350.06 Z M 282.313 346.27 L 283.603 346.24 C 283.603 347.833 283.376 349.257 282.923 350.51 C 282.47 351.757 281.73 352.74 280.703 353.46 C 279.67 354.18 278.29 354.54 276.563 354.54 C 274.803 354.54 273.38 354.02 272.293 352.98 C 271.213 351.94 270.673 350.223 270.673 347.83 L 270.673 336.25 L 273.773 336.25 L 273.773 347.87 C 273.773 348.957 273.933 349.793 274.253 350.38 C 274.566 350.973 274.973 351.383 275.473 351.61 C 275.98 351.837 276.51 351.95 277.063 351.95 C 278.37 351.95 279.403 351.7 280.163 351.2 C 280.93 350.693 281.48 350.01 281.813 349.15 C 282.146 348.283 282.313 347.323 282.313 346.27 ZM 296.686 352.05 C 297.419 352.05 298.093 351.9 298.706 351.6 C 299.326 351.293 299.836 350.873 300.236 350.34 C 300.636 349.807 300.863 349.203 300.916 348.53 L 303.856 348.53 C 303.803 349.597 303.443 350.587 302.776 351.5 C 302.116 352.413 301.253 353.147 300.186 353.7 C 299.126 354.26 297.959 354.54 296.686 354.54 C 294.879 354.54 293.386 354.13 292.206 353.31 C 291.019 352.483 290.136 351.39 289.556 350.03 C 288.976 348.663 288.686 347.18 288.686 345.58 L 288.686 344.88 C 288.686 343.267 288.979 341.78 289.566 340.42 C 290.153 339.067 291.036 337.977 292.216 337.15 C 293.403 336.33 294.893 335.92 296.686 335.92 C 298.093 335.92 299.323 336.203 300.376 336.77 C 301.436 337.343 302.266 338.117 302.866 339.09 C 303.473 340.07 303.803 341.18 303.856 342.42 L 300.916 342.42 C 300.863 341.68 300.656 341.007 300.296 340.4 C 299.936 339.787 299.449 339.3 298.836 338.94 C 298.223 338.587 297.506 338.41 296.686 338.41 C 295.433 338.41 294.449 338.73 293.736 339.37 C 293.023 340.01 292.519 340.827 292.226 341.82 C 291.933 342.807 291.786 343.827 291.786 344.88 L 291.786 345.58 C 291.786 346.627 291.929 347.65 292.216 348.65 C 292.509 349.643 293.013 350.46 293.726 351.1 C 294.439 351.733 295.426 352.05 296.686 352.05 ZM 314.76 354.54 C 313.093 354.54 311.643 354.167 310.41 353.42 C 309.176 352.673 308.216 351.647 307.53 350.34 C 306.85 349.033 306.51 347.54 306.51 345.86 L 306.51 345.15 C 306.51 343.197 306.883 341.533 307.63 340.16 C 308.383 338.78 309.36 337.727 310.56 337 C 311.76 336.28 313.03 335.92 314.37 335.92 C 316.096 335.92 317.503 336.303 318.59 337.07 C 319.683 337.837 320.486 338.883 321 340.21 C 321.513 341.53 321.77 343.027 321.77 344.7 L 321.77 346.08 L 308.36 346.08 L 308.36 343.58 L 318.67 343.58 L 318.67 343.35 C 318.623 342.557 318.46 341.78 318.18 341.02 C 317.906 340.26 317.466 339.633 316.86 339.14 C 316.246 338.653 315.416 338.41 314.37 338.41 C 313.436 338.41 312.613 338.67 311.9 339.19 C 311.186 339.717 310.626 340.48 310.22 341.48 C 309.82 342.487 309.62 343.71 309.62 345.15 L 309.62 345.86 C 309.62 347 309.83 348.037 310.25 348.97 C 310.67 349.91 311.28 350.657 312.08 351.21 C 312.873 351.77 313.823 352.05 314.93 352.05 C 316.016 352.05 316.936 351.83 317.69 351.39 C 318.443 350.943 319.1 350.35 319.66 349.61 L 321.54 351.07 C 320.966 351.957 320.14 352.757 319.06 353.47 C 317.98 354.183 316.546 354.54 314.76 354.54 ZM 336.879 340.08 L 336.879 354.21 L 333.769 354.21 L 333.769 336.25 L 336.709 336.25 L 336.879 340.08 Z M 336.149 344.53 L 334.849 344.48 C 334.876 342.84 335.192 341.377 335.799 340.09 C 336.406 338.803 337.256 337.787 338.349 337.04 C 339.436 336.293 340.706 335.92 342.159 335.92 C 343.339 335.92 344.359 336.137 345.219 336.57 C 346.079 337.01 346.742 337.703 347.209 338.65 C 347.682 339.603 347.919 340.867 347.919 342.44 L 347.919 354.21 L 344.809 354.21 L 344.809 342.41 C 344.809 341.47 344.676 340.71 344.409 340.13 C 344.136 339.557 343.732 339.14 343.199 338.88 C 342.672 338.62 342.019 338.49 341.239 338.49 C 340.479 338.49 339.789 338.65 339.169 338.97 C 338.549 339.29 338.012 339.733 337.559 340.3 C 337.106 340.86 336.756 341.503 336.509 342.23 C 336.269 342.957 336.149 343.723 336.149 344.53 ZM 360.015 354.54 C 358.349 354.54 356.899 354.167 355.665 353.42 C 354.432 352.673 353.472 351.647 352.785 350.34 C 352.105 349.033 351.765 347.54 351.765 345.86 L 351.765 345.15 C 351.765 343.197 352.139 341.533 352.885 340.16 C 353.639 338.78 354.615 337.727 355.815 337 C 357.015 336.28 358.285 335.92 359.625 335.92 C 361.352 335.92 362.759 336.303 363.845 337.07 C 364.939 337.837 365.742 338.883 366.255 340.21 C 366.769 341.53 367.025 343.027 367.025 344.7 L 367.025 346.08 L 353.615 346.08 L 353.615 343.58 L 363.925 343.58 L 363.925 343.35 C 363.879 342.557 363.715 341.78 363.435 341.02 C 363.162 340.26 362.722 339.633 362.115 339.14 C 361.502 338.653 360.672 338.41 359.625 338.41 C 358.692 338.41 357.869 338.67 357.155 339.19 C 356.442 339.717 355.882 340.48 355.475 341.48 C 355.075 342.487 354.875 343.71 354.875 345.15 L 354.875 345.86 C 354.875 347 355.085 348.037 355.505 348.97 C 355.925 349.91 356.535 350.657 357.335 351.21 C 358.129 351.77 359.079 352.05 360.185 352.05 C 361.272 352.05 362.192 351.83 362.945 351.39 C 363.699 350.943 364.355 350.35 364.915 349.61 L 366.795 351.07 C 366.222 351.957 365.395 352.757 364.315 353.47 C 363.235 354.183 361.802 354.54 360.015 354.54 ZM 378.151 336.25 L 378.151 338.59 L 368.421 338.59 L 368.421 336.25 L 378.151 336.25 Z M 371.691 331.88 L 374.791 331.88 L 374.791 349.76 C 374.791 350.38 374.888 350.847 375.081 351.16 C 375.268 351.467 375.511 351.67 375.811 351.77 C 376.111 351.87 376.431 351.92 376.771 351.92 C 377.025 351.92 377.295 351.897 377.581 351.85 C 377.861 351.81 378.068 351.773 378.201 351.74 L 378.211 354.21 C 377.971 354.29 377.655 354.363 377.261 354.43 C 376.868 354.503 376.395 354.54 375.841 354.54 C 375.088 354.54 374.398 354.39 373.771 354.09 C 373.138 353.797 372.631 353.297 372.251 352.59 C 371.878 351.89 371.691 350.94 371.691 349.74 L 371.691 331.88 ZM 386.264 350.99 L 390.884 336.25 L 392.924 336.25 L 392.524 339.2 L 387.824 354.21 L 385.854 354.21 L 386.264 350.99 Z M 383.194 336.25 L 387.134 351.16 L 387.394 354.21 L 385.324 354.21 L 380.104 336.25 L 383.194 336.25 Z M 397.324 351.06 L 401.074 336.25 L 404.144 336.25 L 398.934 354.21 L 396.874 354.21 L 397.324 351.06 Z M 393.394 336.25 L 397.904 350.76 L 398.404 354.21 L 396.424 354.21 L 391.594 339.17 L 391.214 336.25 L 393.394 336.25 ZM 406.474 345.43 L 406.474 345.05 C 406.474 343.31 406.804 341.753 407.464 340.38 C 408.131 339.007 409.074 337.92 410.294 337.12 C 411.507 336.32 412.951 335.92 414.624 335.92 C 416.317 335.92 417.777 336.32 419.004 337.12 C 420.231 337.92 421.174 339.007 421.834 340.38 C 422.494 341.753 422.824 343.31 422.824 345.05 L 422.824 345.43 C 422.824 347.157 422.494 348.707 421.834 350.08 C 421.174 351.46 420.234 352.55 419.014 353.35 C 417.794 354.143 416.341 354.54 414.654 354.54 C 412.974 354.54 411.521 354.143 410.294 353.35 C 409.074 352.55 408.131 351.46 407.464 350.08 C 406.804 348.707 406.474 347.157 406.474 345.43 Z M 409.574 345.05 L 409.574 345.43 C 409.574 346.61 409.764 347.703 410.144 348.71 C 410.517 349.723 411.077 350.533 411.824 351.14 C 412.571 351.747 413.514 352.05 414.654 352.05 C 415.787 352.05 416.727 351.747 417.474 351.14 C 418.221 350.533 418.781 349.723 419.154 348.71 C 419.534 347.703 419.724 346.61 419.724 345.43 L 419.724 345.05 C 419.724 343.863 419.534 342.767 419.154 341.76 C 418.781 340.753 418.217 339.943 417.464 339.33 C 416.711 338.717 415.764 338.41 414.624 338.41 C 413.504 338.41 412.567 338.717 411.814 339.33 C 411.061 339.943 410.501 340.753 410.134 341.76 C 409.761 342.767 409.574 343.863 409.574 345.05 ZM 429.781 339.07 L 429.781 354.21 L 426.671 354.21 L 426.671 336.25 L 429.701 336.25 L 429.781 339.07 Z M 435.371 336.15 L 435.371 338.99 C 435.111 338.93 434.865 338.893 434.631 338.88 C 434.405 338.86 434.148 338.85 433.861 338.85 C 432.921 338.85 432.128 339.043 431.481 339.43 C 430.835 339.823 430.335 340.36 429.981 341.04 C 429.628 341.72 429.405 342.497 429.311 343.37 L 428.431 343.87 C 428.431 342.417 428.628 341.09 429.021 339.89 C 429.408 338.69 430.011 337.727 430.831 337 C 431.658 336.28 432.718 335.92 434.011 335.92 C 434.225 335.92 434.478 335.943 434.771 335.99 C 435.065 336.037 435.265 336.09 435.371 336.15 ZM 441.323 328.71 L 441.323 354.21 L 438.213 354.21 L 438.213 328.71 L 441.323 328.71 Z M 452.273 336.25 L 444.473 344.61 L 440.053 349.16 L 439.803 345.91 L 442.963 342.17 L 448.503 336.25 L 452.273 336.25 Z M 449.453 354.21 L 443.063 345.63 L 444.673 342.9 L 453.103 354.21 L 449.453 354.21 ZM 466.985 339.07 L 466.985 354.21 L 463.875 354.21 L 463.875 336.25 L 466.905 336.25 L 466.985 339.07 Z M 472.575 336.15 L 472.575 338.99 C 472.315 338.93 472.069 338.893 471.835 338.88 C 471.609 338.86 471.352 338.85 471.065 338.85 C 470.125 338.85 469.332 339.043 468.685 339.43 C 468.039 339.823 467.539 340.36 467.185 341.04 C 466.832 341.72 466.609 342.497 466.515 343.37 L 465.635 343.87 C 465.635 342.417 465.832 341.09 466.225 339.89 C 466.612 338.69 467.215 337.727 468.035 337 C 468.862 336.28 469.922 335.92 471.215 335.92 C 471.429 335.92 471.682 335.943 471.975 335.99 C 472.269 336.037 472.469 336.09 472.575 336.15 ZM 482.867 354.54 C 481.2 354.54 479.75 354.167 478.517 353.42 C 477.284 352.673 476.324 351.647 475.637 350.34 C 474.957 349.033 474.617 347.54 474.617 345.86 L 474.617 345.15 C 474.617 343.197 474.99 341.533 475.737 340.16 C 476.49 338.78 477.467 337.727 478.667 337 C 479.867 336.28 481.137 335.92 482.477 335.92 C 484.204 335.92 485.61 336.303 486.697 337.07 C 487.79 337.837 488.594 338.883 489.107 340.21 C 489.62 341.53 489.877 343.027 489.877 344.7 L 489.877 346.08 L 476.467 346.08 L 476.467 343.58 L 486.777 343.58 L 486.777 343.35 C 486.73 342.557 486.567 341.78 486.287 341.02 C 486.014 340.26 485.574 339.633 484.967 339.14 C 484.354 338.653 483.524 338.41 482.477 338.41 C 481.544 338.41 480.72 338.67 480.007 339.19 C 479.294 339.717 478.734 340.48 478.327 341.48 C 477.927 342.487 477.727 343.71 477.727 345.15 L 477.727 345.86 C 477.727 347 477.937 348.037 478.357 348.97 C 478.777 349.91 479.387 350.657 480.187 351.21 C 480.98 351.77 481.93 352.05 483.037 352.05 C 484.124 352.05 485.044 351.83 485.797 351.39 C 486.55 350.943 487.207 350.35 487.767 349.61 L 489.647 351.07 C 489.074 351.957 488.247 352.757 487.167 353.47 C 486.087 354.183 484.654 354.54 482.867 354.54 ZM 504.753 361.12 L 504.753 339.7 L 505.023 336.25 L 507.853 336.25 L 507.853 361.12 L 504.753 361.12 Z M 492.703 345.43 L 492.703 345.08 C 492.703 343.253 492.986 341.65 493.553 340.27 C 494.126 338.897 494.946 337.827 496.013 337.06 C 497.079 336.3 498.359 335.92 499.853 335.92 C 501.373 335.92 502.643 336.263 503.663 336.95 C 504.689 337.643 505.493 338.627 506.073 339.9 C 506.653 341.173 507.026 342.69 507.193 344.45 L 507.193 346.06 C 507.039 347.8 506.673 349.303 506.093 350.57 C 505.506 351.837 504.696 352.813 503.663 353.5 C 502.629 354.193 501.349 354.54 499.823 354.54 C 498.349 354.54 497.079 354.147 496.013 353.36 C 494.946 352.567 494.126 351.483 493.553 350.11 C 492.986 348.737 492.703 347.177 492.703 345.43 Z M 495.803 345.08 L 495.803 345.43 C 495.803 346.623 495.973 347.72 496.313 348.72 C 496.646 349.727 497.169 350.533 497.883 351.14 C 498.589 351.747 499.496 352.05 500.603 352.05 C 501.623 352.05 502.466 351.827 503.133 351.38 C 503.806 350.933 504.349 350.347 504.763 349.62 C 505.176 348.893 505.493 348.117 505.713 347.29 L 505.713 343.25 C 505.579 342.643 505.386 342.053 505.133 341.48 C 504.879 340.9 504.549 340.38 504.143 339.92 C 503.729 339.453 503.233 339.083 502.653 338.81 C 502.073 338.543 501.399 338.41 500.633 338.41 C 499.519 338.41 498.606 338.717 497.893 339.33 C 497.173 339.943 496.646 340.757 496.313 341.77 C 495.973 342.783 495.803 343.887 495.803 345.08 ZM 523.774 350.06 L 523.774 336.25 L 526.884 336.25 L 526.884 354.21 L 523.924 354.21 L 523.774 350.06 Z M 524.364 346.27 L 525.654 346.24 C 525.654 347.833 525.427 349.257 524.974 350.51 C 524.52 351.757 523.78 352.74 522.754 353.46 C 521.72 354.18 520.34 354.54 518.614 354.54 C 516.854 354.54 515.43 354.02 514.344 352.98 C 513.264 351.94 512.724 350.223 512.724 347.83 L 512.724 336.25 L 515.824 336.25 L 515.824 347.87 C 515.824 348.957 515.984 349.793 516.304 350.38 C 516.617 350.973 517.024 351.383 517.524 351.61 C 518.03 351.837 518.56 351.95 519.114 351.95 C 520.42 351.95 521.454 351.7 522.214 351.2 C 522.98 350.693 523.53 350.01 523.864 349.15 C 524.197 348.283 524.364 347.323 524.364 346.27 ZM 538.997 354.54 C 537.33 354.54 535.88 354.167 534.647 353.42 C 533.413 352.673 532.453 351.647 531.767 350.34 C 531.087 349.033 530.747 347.54 530.747 345.86 L 530.747 345.15 C 530.747 343.197 531.12 341.533 531.867 340.16 C 532.62 338.78 533.597 337.727 534.797 337 C 535.997 336.28 537.267 335.92 538.607 335.92 C 540.333 335.92 541.74 336.303 542.827 337.07 C 543.92 337.837 544.723 338.883 545.237 340.21 C 545.75 341.53 546.007 343.027 546.007 344.7 L 546.007 346.08 L 532.597 346.08 L 532.597 343.58 L 542.907 343.58 L 542.907 343.35 C 542.86 342.557 542.697 341.78 542.417 341.02 C 542.143 340.26 541.703 339.633 541.097 339.14 C 540.483 338.653 539.653 338.41 538.607 338.41 C 537.673 338.41 536.85 338.67 536.137 339.19 C 535.423 339.717 534.863 340.48 534.457 341.48 C 534.057 342.487 533.857 343.71 533.857 345.15 L 533.857 345.86 C 533.857 347 534.067 348.037 534.487 348.97 C 534.907 349.91 535.517 350.657 536.317 351.21 C 537.11 351.77 538.06 352.05 539.167 352.05 C 540.253 352.05 541.173 351.83 541.927 351.39 C 542.68 350.943 543.337 350.35 543.897 349.61 L 545.777 351.07 C 545.203 351.957 544.377 352.757 543.297 353.47 C 542.217 354.183 540.783 354.54 538.997 354.54 ZM 560.033 349.45 C 560.033 349.003 559.936 348.59 559.743 348.21 C 559.549 347.83 559.159 347.48 558.573 347.16 C 557.986 346.847 557.103 346.567 555.923 346.32 C 554.589 346.047 553.439 345.697 552.473 345.27 C 551.506 344.843 550.759 344.297 550.233 343.63 C 549.706 342.97 549.443 342.147 549.443 341.16 C 549.443 340.207 549.716 339.337 550.263 338.55 C 550.809 337.757 551.586 337.12 552.593 336.64 C 553.593 336.16 554.763 335.92 556.103 335.92 C 557.543 335.92 558.773 336.17 559.793 336.67 C 560.819 337.177 561.603 337.853 562.143 338.7 C 562.689 339.547 562.963 340.483 562.963 341.51 L 559.853 341.51 C 559.853 340.77 559.529 340.067 558.883 339.4 C 558.236 338.74 557.309 338.41 556.103 338.41 C 555.263 338.41 554.579 338.54 554.053 338.8 C 553.526 339.06 553.143 339.39 552.903 339.79 C 552.669 340.197 552.553 340.62 552.553 341.06 C 552.553 341.507 552.663 341.893 552.883 342.22 C 553.103 342.547 553.509 342.837 554.103 343.09 C 554.696 343.343 555.556 343.597 556.683 343.85 C 558.156 344.183 559.369 344.583 560.323 345.05 C 561.269 345.51 561.976 346.08 562.443 346.76 C 562.909 347.433 563.143 348.257 563.143 349.23 C 563.143 350.27 562.853 351.19 562.273 351.99 C 561.699 352.797 560.893 353.423 559.853 353.87 C 558.813 354.317 557.589 354.54 556.183 354.54 C 554.603 354.54 553.263 354.26 552.163 353.7 C 551.069 353.133 550.239 352.403 549.673 351.51 C 549.113 350.623 548.833 349.68 548.833 348.68 L 551.933 348.68 C 551.986 349.52 552.233 350.187 552.673 350.68 C 553.113 351.173 553.649 351.527 554.283 351.74 C 554.923 351.947 555.556 352.05 556.183 352.05 C 557.023 352.05 557.729 351.937 558.303 351.71 C 558.869 351.483 559.299 351.173 559.593 350.78 C 559.886 350.387 560.033 349.943 560.033 349.45 ZM 574.681 336.25 L 574.681 338.59 L 564.951 338.59 L 564.951 336.25 L 574.681 336.25 Z M 568.221 331.88 L 571.321 331.88 L 571.321 349.76 C 571.321 350.38 571.417 350.847 571.611 351.16 C 571.797 351.467 572.041 351.67 572.341 351.77 C 572.641 351.87 572.961 351.92 573.301 351.92 C 573.554 351.92 573.824 351.897 574.111 351.85 C 574.391 351.81 574.597 351.773 574.731 351.74 L 574.741 354.21 C 574.501 354.29 574.184 354.363 573.791 354.43 C 573.397 354.503 572.924 354.54 572.371 354.54 C 571.617 354.54 570.927 354.39 570.301 354.09 C 569.667 353.797 569.161 353.297 568.781 352.59 C 568.407 351.89 568.221 350.94 568.221 349.74 L 568.221 331.88 ZM 588.704 349.45 C 588.704 349.003 588.607 348.59 588.414 348.21 C 588.22 347.83 587.83 347.48 587.244 347.16 C 586.657 346.847 585.774 346.567 584.594 346.32 C 583.26 346.047 582.11 345.697 581.144 345.27 C 580.177 344.843 579.43 344.297 578.904 343.63 C 578.377 342.97 578.114 342.147 578.114 341.16 C 578.114 340.207 578.387 339.337 578.934 338.55 C 579.48 337.757 580.257 337.12 581.264 336.64 C 582.264 336.16 583.434 335.92 584.774 335.92 C 586.214 335.92 587.444 336.17 588.464 336.67 C 589.49 337.177 590.274 337.853 590.814 338.7 C 591.36 339.547 591.634 340.483 591.634 341.51 L 588.524 341.51 C 588.524 340.77 588.2 340.067 587.554 339.4 C 586.907 338.74 585.98 338.41 584.774 338.41 C 583.934 338.41 583.25 338.54 582.724 338.8 C 582.197 339.06 581.814 339.39 581.574 339.79 C 581.34 340.197 581.224 340.62 581.224 341.06 C 581.224 341.507 581.334 341.893 581.554 342.22 C 581.774 342.547 582.18 342.837 582.774 343.09 C 583.367 343.343 584.227 343.597 585.354 343.85 C 586.827 344.183 588.04 344.583 588.994 345.05 C 589.94 345.51 590.647 346.08 591.114 346.76 C 591.58 347.433 591.814 348.257 591.814 349.23 C 591.814 350.27 591.524 351.19 590.944 351.99 C 590.37 352.797 589.564 353.423 588.524 353.87 C 587.484 354.317 586.26 354.54 584.854 354.54 C 583.274 354.54 581.934 354.26 580.834 353.7 C 579.74 353.133 578.91 352.403 578.344 351.51 C 577.784 350.623 577.504 349.68 577.504 348.68 L 580.604 348.68 C 580.657 349.52 580.904 350.187 581.344 350.68 C 581.784 351.173 582.32 351.527 582.954 351.74 C 583.594 351.947 584.227 352.05 584.854 352.05 C 585.694 352.05 586.4 351.937 586.974 351.71 C 587.54 351.483 587.97 351.173 588.264 350.78 C 588.557 350.387 588.704 349.943 588.704 349.45 ZM 614.825 351.14 L 614.825 341.89 C 614.825 340.817 614.505 339.963 613.865 339.33 C 613.232 338.69 612.295 338.37 611.055 338.37 C 610.288 338.37 609.615 338.503 609.035 338.77 C 608.455 339.037 608.005 339.387 607.685 339.82 C 607.365 340.247 607.205 340.717 607.205 341.23 L 604.095 341.23 C 604.095 340.363 604.388 339.523 604.975 338.71 C 605.562 337.897 606.388 337.227 607.455 336.7 C 608.528 336.18 609.788 335.92 611.235 335.92 C 612.542 335.92 613.698 336.14 614.705 336.58 C 615.712 337.02 616.502 337.687 617.075 338.58 C 617.642 339.473 617.925 340.587 617.925 341.92 L 617.925 350.29 C 617.925 350.89 617.978 351.527 618.085 352.2 C 618.192 352.873 618.348 353.453 618.555 353.94 L 618.555 354.21 L 615.315 354.21 C 615.162 353.857 615.042 353.383 614.955 352.79 C 614.868 352.197 614.825 351.647 614.825 351.14 Z M 615.355 343.32 L 615.385 345.48 L 612.295 345.48 C 610.548 345.48 609.198 345.757 608.245 346.31 C 607.292 346.863 606.815 347.693 606.815 348.8 C 606.815 349.66 607.108 350.39 607.695 350.99 C 608.275 351.59 609.122 351.89 610.235 351.89 C 611.182 351.89 612.012 351.69 612.725 351.29 C 613.445 350.89 614.015 350.397 614.435 349.81 C 614.862 349.223 615.088 348.66 615.115 348.12 L 616.445 349.59 C 616.372 350.057 616.162 350.573 615.815 351.14 C 615.475 351.707 615.018 352.247 614.445 352.76 C 613.878 353.273 613.205 353.7 612.425 354.04 C 611.645 354.373 610.768 354.54 609.795 354.54 C 608.575 354.54 607.508 354.307 606.595 353.84 C 605.682 353.367 604.972 352.727 604.465 351.92 C 603.965 351.113 603.715 350.217 603.715 349.23 C 603.715 347.29 604.445 345.82 605.905 344.82 C 607.365 343.82 609.328 343.32 611.795 343.32 L 615.355 343.32 ZM 625.846 340.08 L 625.846 354.21 L 622.736 354.21 L 622.736 336.25 L 625.676 336.25 L 625.846 340.08 Z M 625.116 344.53 L 623.816 344.48 C 623.842 342.84 624.159 341.377 624.766 340.09 C 625.372 338.803 626.222 337.787 627.316 337.04 C 628.402 336.293 629.672 335.92 631.126 335.92 C 632.306 335.92 633.326 336.137 634.186 336.57 C 635.046 337.01 635.709 337.703 636.176 338.65 C 636.649 339.603 636.886 340.867 636.886 342.44 L 636.886 354.21 L 633.776 354.21 L 633.776 342.41 C 633.776 341.47 633.642 340.71 633.376 340.13 C 633.102 339.557 632.699 339.14 632.166 338.88 C 631.639 338.62 630.986 338.49 630.206 338.49 C 629.446 338.49 628.756 338.65 628.136 338.97 C 627.516 339.29 626.979 339.733 626.526 340.3 C 626.072 340.86 625.722 341.503 625.476 342.23 C 625.236 342.957 625.116 343.723 625.116 344.53 ZM 652.842 350.72 L 652.842 328.71 L 655.942 328.71 L 655.942 354.21 L 653.102 354.21 L 652.842 350.72 Z M 640.772 345.43 L 640.772 345.08 C 640.772 343.253 641.069 341.65 641.662 340.27 C 642.249 338.897 643.075 337.827 644.142 337.06 C 645.202 336.3 646.445 335.92 647.872 335.92 C 649.379 335.92 650.635 336.263 651.642 336.95 C 652.649 337.643 653.439 338.627 654.012 339.9 C 654.579 341.173 654.945 342.69 655.112 344.45 L 655.112 346.06 C 654.945 347.8 654.582 349.303 654.022 350.57 C 653.455 351.837 652.665 352.813 651.652 353.5 C 650.639 354.193 649.369 354.54 647.842 354.54 C 646.435 354.54 645.202 354.147 644.142 353.36 C 643.075 352.567 642.249 351.483 641.662 350.11 C 641.069 348.737 640.772 347.177 640.772 345.43 Z M 643.872 345.08 L 643.872 345.43 C 643.872 346.623 644.035 347.713 644.362 348.7 C 644.689 349.687 645.202 350.473 645.902 351.06 C 646.595 351.653 647.495 351.95 648.602 351.95 C 649.622 351.95 650.462 351.733 651.122 351.3 C 651.782 350.873 652.309 350.303 652.702 349.59 C 653.102 348.883 653.412 348.117 653.632 347.29 L 653.632 343.25 C 653.499 342.643 653.309 342.053 653.062 341.48 C 652.815 340.913 652.495 340.407 652.102 339.96 C 651.709 339.513 651.225 339.157 650.652 338.89 C 650.085 338.623 649.415 338.49 648.642 338.49 C 647.522 338.49 646.612 338.787 645.912 339.38 C 645.205 339.98 644.689 340.78 644.362 341.78 C 644.035 342.787 643.872 343.887 643.872 345.08 ZM 680.127 350.06 L 680.127 336.25 L 683.237 336.25 L 683.237 354.21 L 680.277 354.21 L 680.127 350.06 Z M 680.717 346.27 L 682.007 346.24 C 682.007 347.833 681.78 349.257 681.327 350.51 C 680.874 351.757 680.134 352.74 679.107 353.46 C 678.074 354.18 676.694 354.54 674.967 354.54 C 673.207 354.54 671.784 354.02 670.697 352.98 C 669.617 351.94 669.077 350.223 669.077 347.83 L 669.077 336.25 L 672.177 336.25 L 672.177 347.87 C 672.177 348.957 672.337 349.793 672.657 350.38 C 672.97 350.973 673.377 351.383 673.877 351.61 C 674.384 351.837 674.914 351.95 675.467 351.95 C 676.774 351.95 677.807 351.7 678.567 351.2 C 679.334 350.693 679.884 350.01 680.217 349.15 C 680.55 348.283 680.717 347.323 680.717 346.27 ZM 690.99 340.08 L 690.99 354.21 L 687.88 354.21 L 687.88 336.25 L 690.82 336.25 L 690.99 340.08 Z M 690.26 344.53 L 688.96 344.48 C 688.987 342.84 689.304 341.377 689.91 340.09 C 690.517 338.803 691.367 337.787 692.46 337.04 C 693.547 336.293 694.817 335.92 696.27 335.92 C 697.45 335.92 698.47 336.137 699.33 336.57 C 700.19 337.01 700.854 337.703 701.32 338.65 C 701.794 339.603 702.03 340.867 702.03 342.44 L 702.03 354.21 L 698.92 354.21 L 698.92 342.41 C 698.92 341.47 698.787 340.71 698.52 340.13 C 698.247 339.557 697.844 339.14 697.31 338.88 C 696.784 338.62 696.13 338.49 695.35 338.49 C 694.59 338.49 693.9 338.65 693.28 338.97 C 692.66 339.29 692.124 339.733 691.67 340.3 C 691.217 340.86 690.867 341.503 690.62 342.23 C 690.38 342.957 690.26 343.723 690.26 344.53 ZM 714.127 354.54 C 712.46 354.54 711.01 354.167 709.777 353.42 C 708.543 352.673 707.583 351.647 706.897 350.34 C 706.217 349.033 705.877 347.54 705.877 345.86 L 705.877 345.15 C 705.877 343.197 706.25 341.533 706.997 340.16 C 707.75 338.78 708.727 337.727 709.927 337 C 711.127 336.28 712.397 335.92 713.737 335.92 C 715.463 335.92 716.87 336.303 717.957 337.07 C 719.05 337.837 719.853 338.883 720.367 340.21 C 720.88 341.53 721.137 343.027 721.137 344.7 L 721.137 346.08 L 707.727 346.08 L 707.727 343.58 L 718.037 343.58 L 718.037 343.35 C 717.99 342.557 717.827 341.78 717.547 341.02 C 717.273 340.26 716.833 339.633 716.227 339.14 C 715.613 338.653 714.783 338.41 713.737 338.41 C 712.803 338.41 711.98 338.67 711.267 339.19 C 710.553 339.717 709.993 340.48 709.587 341.48 C 709.187 342.487 708.987 343.71 708.987 345.15 L 708.987 345.86 C 708.987 347 709.197 348.037 709.617 348.97 C 710.037 349.91 710.647 350.657 711.447 351.21 C 712.24 351.77 713.19 352.05 714.297 352.05 C 715.383 352.05 716.303 351.83 717.057 351.39 C 717.81 350.943 718.467 350.35 719.027 349.61 L 720.907 351.07 C 720.333 351.957 719.507 352.757 718.427 353.47 C 717.347 354.183 715.913 354.54 714.127 354.54 ZM 726.833 336.25 L 730.753 342.8 L 734.703 336.25 L 738.323 336.25 L 732.463 345.11 L 738.503 354.21 L 734.933 354.21 L 730.803 347.45 L 726.683 354.21 L 723.063 354.21 L 729.123 345.11 L 723.243 336.25 L 726.833 336.25 ZM 744.68 339.7 L 744.68 361.12 L 741.57 361.12 L 741.57 336.25 L 744.4 336.25 L 744.68 339.7 Z M 756.76 345.08 L 756.76 345.43 C 756.76 347.177 756.49 348.737 755.95 350.11 C 755.41 351.483 754.623 352.567 753.59 353.36 C 752.55 354.147 751.29 354.54 749.81 354.54 C 748.27 354.54 746.98 354.21 745.94 353.55 C 744.9 352.883 744.086 351.94 743.5 350.72 C 742.913 349.493 742.53 348.043 742.35 346.37 L 742.35 344.45 C 742.53 342.69 742.916 341.173 743.51 339.9 C 744.103 338.627 744.916 337.643 745.95 336.95 C 746.983 336.263 748.253 335.92 749.76 335.92 C 751.266 335.92 752.54 336.3 753.58 337.06 C 754.62 337.827 755.41 338.897 755.95 340.27 C 756.49 341.65 756.76 343.253 756.76 345.08 Z M 753.66 345.43 L 753.66 345.08 C 753.66 343.887 753.49 342.787 753.15 341.78 C 752.816 340.78 752.293 339.98 751.58 339.38 C 750.866 338.787 749.95 338.49 748.83 338.49 C 748.063 338.49 747.4 338.623 746.84 338.89 C 746.273 339.157 745.79 339.513 745.39 339.96 C 744.99 340.407 744.666 340.913 744.42 341.48 C 744.173 342.053 743.99 342.643 743.87 343.25 L 743.87 347.59 C 744.09 348.363 744.396 349.09 744.79 349.77 C 745.183 350.45 745.706 351 746.36 351.42 C 747.02 351.84 747.853 352.05 748.86 352.05 C 749.966 352.05 750.873 351.747 751.58 351.14 C 752.293 350.533 752.816 349.727 753.15 348.72 C 753.49 347.72 753.66 346.623 753.66 345.43 ZM 768.132 354.54 C 766.465 354.54 765.015 354.167 763.782 353.42 C 762.548 352.673 761.588 351.647 760.902 350.34 C 760.222 349.033 759.882 347.54 759.882 345.86 L 759.882 345.15 C 759.882 343.197 760.255 341.533 761.002 340.16 C 761.755 338.78 762.732 337.727 763.932 337 C 765.132 336.28 766.402 335.92 767.742 335.92 C 769.468 335.92 770.875 336.303 771.962 337.07 C 773.055 337.837 773.858 338.883 774.372 340.21 C 774.885 341.53 775.142 343.027 775.142 344.7 L 775.142 346.08 L 761.732 346.08 L 761.732 343.58 L 772.042 343.58 L 772.042 343.35 C 771.995 342.557 771.832 341.78 771.552 341.02 C 771.278 340.26 770.838 339.633 770.232 339.14 C 769.618 338.653 768.788 338.41 767.742 338.41 C 766.808 338.41 765.985 338.67 765.272 339.19 C 764.558 339.717 763.998 340.48 763.592 341.48 C 763.192 342.487 762.992 343.71 762.992 345.15 L 762.992 345.86 C 762.992 347 763.202 348.037 763.622 348.97 C 764.042 349.91 764.652 350.657 765.452 351.21 C 766.245 351.77 767.195 352.05 768.302 352.05 C 769.388 352.05 770.308 351.83 771.062 351.39 C 771.815 350.943 772.472 350.35 773.032 349.61 L 774.912 351.07 C 774.338 351.957 773.512 352.757 772.432 353.47 C 771.352 354.183 769.918 354.54 768.132 354.54 ZM 785.917 352.05 C 786.651 352.05 787.324 351.9 787.937 351.6 C 788.557 351.293 789.067 350.873 789.467 350.34 C 789.867 349.807 790.094 349.203 790.147 348.53 L 793.087 348.53 C 793.034 349.597 792.674 350.587 792.007 351.5 C 791.347 352.413 790.484 353.147 789.417 353.7 C 788.357 354.26 787.191 354.54 785.917 354.54 C 784.111 354.54 782.617 354.13 781.437 353.31 C 780.251 352.483 779.367 351.39 778.787 350.03 C 778.207 348.663 777.917 347.18 777.917 345.58 L 777.917 344.88 C 777.917 343.267 778.211 341.78 778.797 340.42 C 779.384 339.067 780.267 337.977 781.447 337.15 C 782.634 336.33 784.124 335.92 785.917 335.92 C 787.324 335.92 788.554 336.203 789.607 336.77 C 790.667 337.343 791.497 338.117 792.097 339.09 C 792.704 340.07 793.034 341.18 793.087 342.42 L 790.147 342.42 C 790.094 341.68 789.887 341.007 789.527 340.4 C 789.167 339.787 788.681 339.3 788.067 338.94 C 787.454 338.587 786.737 338.41 785.917 338.41 C 784.664 338.41 783.681 338.73 782.967 339.37 C 782.254 340.01 781.751 340.827 781.457 341.82 C 781.164 342.807 781.017 343.827 781.017 344.88 L 781.017 345.58 C 781.017 346.627 781.161 347.65 781.447 348.65 C 781.741 349.643 782.244 350.46 782.957 351.1 C 783.671 351.733 784.657 352.05 785.917 352.05 ZM 804.081 336.25 L 804.081 338.59 L 794.351 338.59 L 794.351 336.25 L 804.081 336.25 Z M 797.621 331.88 L 800.721 331.88 L 800.721 349.76 C 800.721 350.38 800.818 350.847 801.011 351.16 C 801.198 351.467 801.441 351.67 801.741 351.77 C 802.041 351.87 802.361 351.92 802.701 351.92 C 802.954 351.92 803.224 351.897 803.511 351.85 C 803.791 351.81 803.998 351.773 804.131 351.74 L 804.141 354.21 C 803.901 354.29 803.584 354.363 803.191 354.43 C 802.798 354.503 802.324 354.54 801.771 354.54 C 801.018 354.54 800.328 354.39 799.701 354.09 C 799.068 353.797 798.561 353.297 798.181 352.59 C 797.808 351.89 797.621 350.94 797.621 349.74 L 797.621 331.88 ZM 815.114 354.54 C 813.447 354.54 811.997 354.167 810.764 353.42 C 809.531 352.673 808.571 351.647 807.884 350.34 C 807.204 349.033 806.864 347.54 806.864 345.86 L 806.864 345.15 C 806.864 343.197 807.237 341.533 807.984 340.16 C 808.737 338.78 809.714 337.727 810.914 337 C 812.114 336.28 813.384 335.92 814.724 335.92 C 816.451 335.92 817.857 336.303 818.944 337.07 C 820.037 337.837 820.841 338.883 821.354 340.21 C 821.867 341.53 822.124 343.027 822.124 344.7 L 822.124 346.08 L 808.714 346.08 L 808.714 343.58 L 819.024 343.58 L 819.024 343.35 C 818.977 342.557 818.814 341.78 818.534 341.02 C 818.261 340.26 817.821 339.633 817.214 339.14 C 816.601 338.653 815.771 338.41 814.724 338.41 C 813.791 338.41 812.967 338.67 812.254 339.19 C 811.541 339.717 810.981 340.48 810.574 341.48 C 810.174 342.487 809.974 343.71 809.974 345.15 L 809.974 345.86 C 809.974 347 810.184 348.037 810.604 348.97 C 811.024 349.91 811.634 350.657 812.434 351.21 C 813.227 351.77 814.177 352.05 815.284 352.05 C 816.371 352.05 817.291 351.83 818.044 351.39 C 818.797 350.943 819.454 350.35 820.014 349.61 L 821.894 351.07 C 821.321 351.957 820.494 352.757 819.414 353.47 C 818.334 354.183 816.901 354.54 815.114 354.54 ZM 837.02 350.72 L 837.02 328.71 L 840.12 328.71 L 840.12 354.21 L 837.28 354.21 L 837.02 350.72 Z M 824.95 345.43 L 824.95 345.08 C 824.95 343.253 825.247 341.65 825.84 340.27 C 826.427 338.897 827.253 337.827 828.32 337.06 C 829.38 336.3 830.623 335.92 832.05 335.92 C 833.557 335.92 834.813 336.263 835.82 336.95 C 836.827 337.643 837.617 338.627 838.19 339.9 C 838.757 341.173 839.123 342.69 839.29 344.45 L 839.29 346.06 C 839.123 347.8 838.76 349.303 838.2 350.57 C 837.633 351.837 836.843 352.813 835.83 353.5 C 834.817 354.193 833.547 354.54 832.02 354.54 C 830.613 354.54 829.38 354.147 828.32 353.36 C 827.253 352.567 826.427 351.483 825.84 350.11 C 825.247 348.737 824.95 347.177 824.95 345.43 Z M 828.05 345.08 L 828.05 345.43 C 828.05 346.623 828.213 347.713 828.54 348.7 C 828.867 349.687 829.38 350.473 830.08 351.06 C 830.773 351.653 831.673 351.95 832.78 351.95 C 833.8 351.95 834.64 351.733 835.3 351.3 C 835.96 350.873 836.487 350.303 836.88 349.59 C 837.28 348.883 837.59 348.117 837.81 347.29 L 837.81 343.25 C 837.677 342.643 837.487 342.053 837.24 341.48 C 836.993 340.913 836.673 340.407 836.28 339.96 C 835.887 339.513 835.403 339.157 834.83 338.89 C 834.263 338.623 833.593 338.49 832.82 338.49 C 831.7 338.49 830.79 338.787 830.09 339.38 C 829.383 339.98 828.867 340.78 828.54 341.78 C 828.213 342.787 828.05 343.887 828.05 345.08 ZM 862.765 332.16 L 854.785 354.21 L 851.455 354.21 L 860.695 330.04 L 862.815 330.04 L 862.765 332.16 Z M 869.455 354.21 L 861.435 332.16 L 861.405 330.04 L 863.515 330.04 L 872.755 354.21 L 869.455 354.21 Z M 869.055 345.28 L 869.055 347.88 L 855.465 347.88 L 855.465 345.28 L 869.055 345.28 ZM 884.948 344.73 L 878.508 344.73 L 878.508 342.14 L 884.948 342.14 C 886.194 342.14 887.204 341.937 887.978 341.53 C 888.744 341.13 889.308 340.577 889.668 339.87 C 890.028 339.157 890.208 338.347 890.208 337.44 C 890.208 336.613 890.028 335.833 889.668 335.1 C 889.308 334.373 888.744 333.783 887.978 333.33 C 887.204 332.87 886.194 332.64 884.948 332.64 L 879.238 332.64 L 879.238 354.21 L 876.018 354.21 L 876.018 330.04 L 884.948 330.04 C 886.774 330.04 888.318 330.353 889.578 330.98 C 890.838 331.613 891.794 332.483 892.448 333.59 C 893.101 334.697 893.428 335.97 893.428 337.41 C 893.428 338.957 893.101 340.28 892.448 341.38 C 891.794 342.473 890.838 343.307 889.578 343.88 C 888.318 344.447 886.774 344.73 884.948 344.73 ZM 900.934 330.04 L 900.934 354.21 L 897.714 354.21 L 897.714 330.04 L 900.934 330.04 ZM 917.801 339.07 L 917.801 354.21 L 914.691 354.21 L 914.691 336.25 L 917.721 336.25 L 917.801 339.07 Z M 923.391 336.15 L 923.391 338.99 C 923.131 338.93 922.884 338.893 922.651 338.88 C 922.424 338.86 922.168 338.85 921.881 338.85 C 920.941 338.85 920.148 339.043 919.501 339.43 C 918.854 339.823 918.354 340.36 918.001 341.04 C 917.648 341.72 917.424 342.497 917.331 343.37 L 916.451 343.87 C 916.451 342.417 916.648 341.09 917.041 339.89 C 917.428 338.69 918.031 337.727 918.851 337 C 919.678 336.28 920.738 335.92 922.031 335.92 C 922.244 335.92 922.498 335.943 922.791 335.99 C 923.084 336.037 923.284 336.09 923.391 336.15 ZM 933.682 354.54 C 932.016 354.54 930.566 354.167 929.332 353.42 C 928.099 352.673 927.139 351.647 926.452 350.34 C 925.772 349.033 925.432 347.54 925.432 345.86 L 925.432 345.15 C 925.432 343.197 925.806 341.533 926.552 340.16 C 927.306 338.78 928.282 337.727 929.482 337 C 930.682 336.28 931.952 335.92 933.292 335.92 C 935.019 335.92 936.426 336.303 937.512 337.07 C 938.606 337.837 939.409 338.883 939.922 340.21 C 940.436 341.53 940.692 343.027 940.692 344.7 L 940.692 346.08 L 927.282 346.08 L 927.282 343.58 L 937.592 343.58 L 937.592 343.35 C 937.546 342.557 937.382 341.78 937.102 341.02 C 936.829 340.26 936.389 339.633 935.782 339.14 C 935.169 338.653 934.339 338.41 933.292 338.41 C 932.359 338.41 931.536 338.67 930.822 339.19 C 930.109 339.717 929.549 340.48 929.142 341.48 C 928.742 342.487 928.542 343.71 928.542 345.15 L 928.542 345.86 C 928.542 347 928.752 348.037 929.172 348.97 C 929.592 349.91 930.202 350.657 931.002 351.21 C 931.796 351.77 932.746 352.05 933.852 352.05 C 934.939 352.05 935.859 351.83 936.612 351.39 C 937.366 350.943 938.022 350.35 938.582 349.61 L 940.462 351.07 C 939.889 351.957 939.062 352.757 937.982 353.47 C 936.902 354.183 935.469 354.54 933.682 354.54 ZM 954.718 349.45 C 954.718 349.003 954.622 348.59 954.428 348.21 C 954.235 347.83 953.845 347.48 953.258 347.16 C 952.672 346.847 951.788 346.567 950.608 346.32 C 949.275 346.047 948.125 345.697 947.158 345.27 C 946.192 344.843 945.445 344.297 944.918 343.63 C 944.392 342.97 944.128 342.147 944.128 341.16 C 944.128 340.207 944.402 339.337 944.948 338.55 C 945.495 337.757 946.272 337.12 947.278 336.64 C 948.278 336.16 949.448 335.92 950.788 335.92 C 952.228 335.92 953.458 336.17 954.478 336.67 C 955.505 337.177 956.288 337.853 956.828 338.7 C 957.375 339.547 957.648 340.483 957.648 341.51 L 954.538 341.51 C 954.538 340.77 954.215 340.067 953.568 339.4 C 952.922 338.74 951.995 338.41 950.788 338.41 C 949.948 338.41 949.265 338.54 948.738 338.8 C 948.212 339.06 947.828 339.39 947.588 339.79 C 947.355 340.197 947.238 340.62 947.238 341.06 C 947.238 341.507 947.348 341.893 947.568 342.22 C 947.788 342.547 948.195 342.837 948.788 343.09 C 949.382 343.343 950.242 343.597 951.368 343.85 C 952.842 344.183 954.055 344.583 955.008 345.05 C 955.955 345.51 956.662 346.08 957.128 346.76 C 957.595 347.433 957.828 348.257 957.828 349.23 C 957.828 350.27 957.538 351.19 956.958 351.99 C 956.385 352.797 955.578 353.423 954.538 353.87 C 953.498 354.317 952.275 354.54 950.868 354.54 C 949.288 354.54 947.948 354.26 946.848 353.7 C 945.755 353.133 944.925 352.403 944.358 351.51 C 943.798 350.623 943.518 349.68 943.518 348.68 L 946.618 348.68 C 946.672 349.52 946.918 350.187 947.358 350.68 C 947.798 351.173 948.335 351.527 948.968 351.74 C 949.608 351.947 950.242 352.05 950.868 352.05 C 951.708 352.05 952.415 351.937 952.988 351.71 C 953.555 351.483 953.985 351.173 954.278 350.78 C 954.572 350.387 954.718 349.943 954.718 349.45 ZM 964.916 339.7 L 964.916 361.12 L 961.806 361.12 L 961.806 336.25 L 964.636 336.25 L 964.916 339.7 Z M 976.996 345.08 L 976.996 345.43 C 976.996 347.177 976.726 348.737 976.186 350.11 C 975.646 351.483 974.859 352.567 973.826 353.36 C 972.786 354.147 971.526 354.54 970.046 354.54 C 968.506 354.54 967.216 354.21 966.176 353.55 C 965.136 352.883 964.323 351.94 963.736 350.72 C 963.149 349.493 962.766 348.043 962.586 346.37 L 962.586 344.45 C 962.766 342.69 963.153 341.173 963.746 339.9 C 964.339 338.627 965.153 337.643 966.186 336.95 C 967.219 336.263 968.489 335.92 969.996 335.92 C 971.503 335.92 972.776 336.3 973.816 337.06 C 974.856 337.827 975.646 338.897 976.186 340.27 C 976.726 341.65 976.996 343.253 976.996 345.08 Z M 973.896 345.43 L 973.896 345.08 C 973.896 343.887 973.726 342.787 973.386 341.78 C 973.053 340.78 972.529 339.98 971.816 339.38 C 971.103 338.787 970.186 338.49 969.066 338.49 C 968.299 338.49 967.636 338.623 967.076 338.89 C 966.509 339.157 966.026 339.513 965.626 339.96 C 965.226 340.407 964.903 340.913 964.656 341.48 C 964.409 342.053 964.226 342.643 964.106 343.25 L 964.106 347.59 C 964.326 348.363 964.633 349.09 965.026 349.77 C 965.419 350.45 965.943 351 966.596 351.42 C 967.256 351.84 968.089 352.05 969.096 352.05 C 970.203 352.05 971.109 351.747 971.816 351.14 C 972.529 350.533 973.053 349.727 973.386 348.72 C 973.726 347.72 973.896 346.623 973.896 345.43 ZM 980.108 345.43 L 980.108 345.05 C 980.108 343.31 980.438 341.753 981.098 340.38 C 981.765 339.007 982.708 337.92 983.928 337.12 C 985.141 336.32 986.585 335.92 988.258 335.92 C 989.951 335.92 991.411 336.32 992.638 337.12 C 993.865 337.92 994.808 339.007 995.468 340.38 C 996.128 341.753 996.458 343.31 996.458 345.05 L 996.458 345.43 C 996.458 347.157 996.128 348.707 995.468 350.08 C 994.808 351.46 993.868 352.55 992.648 353.35 C 991.428 354.143 989.975 354.54 988.288 354.54 C 986.608 354.54 985.155 354.143 983.928 353.35 C 982.708 352.55 981.765 351.46 981.098 350.08 C 980.438 348.707 980.108 347.157 980.108 345.43 Z M 983.208 345.05 L 983.208 345.43 C 983.208 346.61 983.398 347.703 983.778 348.71 C 984.151 349.723 984.711 350.533 985.458 351.14 C 986.205 351.747 987.148 352.05 988.288 352.05 C 989.421 352.05 990.361 351.747 991.108 351.14 C 991.855 350.533 992.415 349.723 992.788 348.71 C 993.168 347.703 993.358 346.61 993.358 345.43 L 993.358 345.05 C 993.358 343.863 993.168 342.767 992.788 341.76 C 992.415 340.753 991.851 339.943 991.098 339.33 C 990.345 338.717 989.398 338.41 988.258 338.41 C 987.138 338.41 986.201 338.717 985.448 339.33 C 984.695 339.943 984.135 340.753 983.768 341.76 C 983.395 342.767 983.208 343.863 983.208 345.05 ZM 1003.415 340.08 L 1003.415 354.21 L 1000.305 354.21 L 1000.305 336.25 L 1003.245 336.25 L 1003.415 340.08 Z M 1002.685 344.53 L 1001.385 344.48 C 1001.412 342.84 1001.728 341.377 1002.335 340.09 C 1002.942 338.803 1003.792 337.787 1004.885 337.04 C 1005.972 336.293 1007.242 335.92 1008.695 335.92 C 1009.875 335.92 1010.895 336.137 1011.755 336.57 C 1012.615 337.01 1013.278 337.703 1013.745 338.65 C 1014.218 339.603 1014.455 340.867 1014.455 342.44 L 1014.455 354.21 L 1011.345 354.21 L 1011.345 342.41 C 1011.345 341.47 1011.212 340.71 1010.945 340.13 C 1010.672 339.557 1010.268 339.14 1009.735 338.88 C 1009.208 338.62 1008.555 338.49 1007.775 338.49 C 1007.015 338.49 1006.325 338.65 1005.705 338.97 C 1005.085 339.29 1004.548 339.733 1004.095 340.3 C 1003.642 340.86 1003.292 341.503 1003.045 342.23 C 1002.805 342.957 1002.685 343.723 1002.685 344.53 ZM 1029.541 349.45 C 1029.541 349.003 1029.445 348.59 1029.251 348.21 C 1029.058 347.83 1028.668 347.48 1028.081 347.16 C 1027.495 346.847 1026.611 346.567 1025.431 346.32 C 1024.098 346.047 1022.948 345.697 1021.981 345.27 C 1021.015 344.843 1020.268 344.297 1019.741 343.63 C 1019.215 342.97 1018.951 342.147 1018.951 341.16 C 1018.951 340.207 1019.225 339.337 1019.771 338.55 C 1020.318 337.757 1021.095 337.12 1022.101 336.64 C 1023.101 336.16 1024.271 335.92 1025.611 335.92 C 1027.051 335.92 1028.281 336.17 1029.301 336.67 C 1030.328 337.177 1031.111 337.853 1031.651 338.7 C 1032.198 339.547 1032.471 340.483 1032.471 341.51 L 1029.361 341.51 C 1029.361 340.77 1029.038 340.067 1028.391 339.4 C 1027.745 338.74 1026.818 338.41 1025.611 338.41 C 1024.771 338.41 1024.088 338.54 1023.561 338.8 C 1023.035 339.06 1022.651 339.39 1022.411 339.79 C 1022.178 340.197 1022.061 340.62 1022.061 341.06 C 1022.061 341.507 1022.171 341.893 1022.391 342.22 C 1022.611 342.547 1023.018 342.837 1023.611 343.09 C 1024.205 343.343 1025.065 343.597 1026.191 343.85 C 1027.665 344.183 1028.878 344.583 1029.831 345.05 C 1030.778 345.51 1031.485 346.08 1031.951 346.76 C 1032.418 347.433 1032.651 348.257 1032.651 349.23 C 1032.651 350.27 1032.361 351.19 1031.781 351.99 C 1031.208 352.797 1030.401 353.423 1029.361 353.87 C 1028.321 354.317 1027.098 354.54 1025.691 354.54 C 1024.111 354.54 1022.771 354.26 1021.671 353.7 C 1020.578 353.133 1019.748 352.403 1019.181 351.51 C 1018.621 350.623 1018.341 349.68 1018.341 348.68 L 1021.441 348.68 C 1021.495 349.52 1021.741 350.187 1022.181 350.68 C 1022.621 351.173 1023.158 351.527 1023.791 351.74 C 1024.431 351.947 1025.065 352.05 1025.691 352.05 C 1026.531 352.05 1027.238 351.937 1027.811 351.71 C 1028.378 351.483 1028.808 351.173 1029.101 350.78 C 1029.395 350.387 1029.541 349.943 1029.541 349.45 ZM 1044.099 354.54 C 1042.433 354.54 1040.983 354.167 1039.749 353.42 C 1038.516 352.673 1037.556 351.647 1036.869 350.34 C 1036.189 349.033 1035.849 347.54 1035.849 345.86 L 1035.849 345.15 C 1035.849 343.197 1036.223 341.533 1036.969 340.16 C 1037.723 338.78 1038.699 337.727 1039.899 337 C 1041.099 336.28 1042.369 335.92 1043.709 335.92 C 1045.436 335.92 1046.843 336.303 1047.929 337.07 C 1049.023 337.837 1049.826 338.883 1050.339 340.21 C 1050.853 341.53 1051.109 343.027 1051.109 344.7 L 1051.109 346.08 L 1037.699 346.08 L 1037.699 343.58 L 1048.009 343.58 L 1048.009 343.35 C 1047.963 342.557 1047.799 341.78 1047.519 341.02 C 1047.246 340.26 1046.806 339.633 1046.199 339.14 C 1045.586 338.653 1044.756 338.41 1043.709 338.41 C 1042.776 338.41 1041.953 338.67 1041.239 339.19 C 1040.526 339.717 1039.966 340.48 1039.559 341.48 C 1039.159 342.487 1038.959 343.71 1038.959 345.15 L 1038.959 345.86 C 1038.959 347 1039.169 348.037 1039.589 348.97 C 1040.009 349.91 1040.619 350.657 1041.419 351.21 C 1042.213 351.77 1043.163 352.05 1044.269 352.05 C 1045.356 352.05 1046.276 351.83 1047.029 351.39 C 1047.783 350.943 1048.439 350.35 1048.999 349.61 L 1050.879 351.07 C 1050.306 351.957 1049.479 352.757 1048.399 353.47 C 1047.319 354.183 1045.886 354.54 1044.099 354.54 ZM 1065.135 349.45 C 1065.135 349.003 1065.039 348.59 1064.845 348.21 C 1064.652 347.83 1064.262 347.48 1063.675 347.16 C 1063.089 346.847 1062.205 346.567 1061.025 346.32 C 1059.692 346.047 1058.542 345.697 1057.575 345.27 C 1056.609 344.843 1055.862 344.297 1055.335 343.63 C 1054.809 342.97 1054.545 342.147 1054.545 341.16 C 1054.545 340.207 1054.819 339.337 1055.365 338.55 C 1055.912 337.757 1056.689 337.12 1057.695 336.64 C 1058.695 336.16 1059.865 335.92 1061.205 335.92 C 1062.645 335.92 1063.875 336.17 1064.895 336.67 C 1065.922 337.177 1066.705 337.853 1067.245 338.7 C 1067.792 339.547 1068.065 340.483 1068.065 341.51 L 1064.955 341.51 C 1064.955 340.77 1064.632 340.067 1063.985 339.4 C 1063.339 338.74 1062.412 338.41 1061.205 338.41 C 1060.365 338.41 1059.682 338.54 1059.155 338.8 C 1058.629 339.06 1058.245 339.39 1058.005 339.79 C 1057.772 340.197 1057.655 340.62 1057.655 341.06 C 1057.655 341.507 1057.765 341.893 1057.985 342.22 C 1058.205 342.547 1058.612 342.837 1059.205 343.09 C 1059.799 343.343 1060.659 343.597 1061.785 343.85 C 1063.259 344.183 1064.472 344.583 1065.425 345.05 C 1066.372 345.51 1067.079 346.08 1067.545 346.76 C 1068.012 347.433 1068.245 348.257 1068.245 349.23 C 1068.245 350.27 1067.955 351.19 1067.375 351.99 C 1066.802 352.797 1065.995 353.423 1064.955 353.87 C 1063.915 354.317 1062.692 354.54 1061.285 354.54 C 1059.705 354.54 1058.365 354.26 1057.265 353.7 C 1056.172 353.133 1055.342 352.403 1054.775 351.51 C 1054.215 350.623 1053.935 349.68 1053.935 348.68 L 1057.035 348.68 C 1057.089 349.52 1057.335 350.187 1057.775 350.68 C 1058.215 351.173 1058.752 351.527 1059.385 351.74 C 1060.025 351.947 1060.659 352.05 1061.285 352.05 C 1062.125 352.05 1062.832 351.937 1063.405 351.71 C 1063.972 351.483 1064.402 351.173 1064.695 350.78 C 1064.989 350.387 1065.135 349.943 1065.135 349.45 Z" transform="matrix(1, 0, 0, 1, 0, 0)" style="fill: rgb(0, 0, 0); white-space: pre;"/>
  <path d="M 1188.373 105.055 C 1202.148 123.835 1215.628 99.814 1215.61 85.37 C 1215.587 68.291 1198.276 58.745 1188.361 58.745 C 1172.447 58.745 1157.292 71.897 1157.292 89.892 C 1157.292 109.893 1174.664 120.972 1188.361 120.972 C 1185.261 120.526 1174.934 118.312 1174.794 94.521 C 1174.701 78.431 1180.042 72.002 1188.34 74.831 C 1188.525 74.9 1197.488 78.436 1197.488 89.989 C 1197.488 101.492 1188.373 105.055 1188.373 105.055 Z" id="path7508" style="color: rgb(0, 0, 0); fill: url(#linearGradient3005); fill-opacity: 1; fill-rule: evenodd; stroke: none; stroke-width: 0.5; marker: none; visibility: visible; display: inline; overflow: visible;"/>
  <path d="M 1188.357 74.818 C 1179.254 71.68 1168.104 79.183 1168.104 94.209 C 1168.104 118.745 1186.284 120.972 1188.488 120.972 C 1204.402 120.972 1219.558 107.82 1219.558 89.824 C 1219.558 69.823 1202.185 58.745 1188.488 58.745 C 1192.283 58.219 1208.937 62.85 1208.937 85.612 C 1208.937 100.454 1196.501 108.535 1188.413 105.082 C 1188.227 105.014 1179.263 101.477 1179.263 89.925 C 1179.263 78.421 1188.357 74.818 1188.357 74.818 Z" id="path7510" style="color: rgb(0, 0, 0); fill: url(#linearGradient3002); fill-opacity: 1; fill-rule: evenodd; stroke: none; stroke-width: 0.5; marker: none; visibility: visible; display: inline; overflow: visible;"/>
  <path d="M 89.579 565.139 C 103.354 583.919 116.834 559.898 116.816 545.454 C 116.793 528.375 99.482 518.829 89.567 518.829 C 73.653 518.829 58.498 531.981 58.498 549.976 C 58.498 569.977 75.87 581.056 89.567 581.056 C 86.467 580.61 76.14 578.396 76 554.605 C 75.907 538.515 81.248 532.086 89.546 534.915 C 89.731 534.984 98.694 538.52 98.694 550.073 C 98.694 561.576 89.579 565.139 89.579 565.139 Z" id="path-1" style="color: rgb(0, 0, 0); fill-opacity: 1; fill-rule: evenodd; stroke: none; stroke-width: 0.5; marker: none; visibility: visible; display: inline; overflow: visible; fill: url(#linearGradient8385-1);"/>
  <path d="M 89.563 534.902 C 80.46 531.764 69.31 539.267 69.31 554.293 C 69.31 578.829 87.49 581.056 89.694 581.056 C 105.608 581.056 120.764 567.904 120.764 549.908 C 120.764 529.907 103.391 518.829 89.694 518.829 C 93.489 518.303 110.143 522.934 110.143 545.696 C 110.143 560.538 97.707 568.619 89.619 565.166 C 89.433 565.098 80.469 561.561 80.469 550.009 C 80.469 538.505 89.563 534.902 89.563 534.902 Z" id="path-2" style="color: rgb(0, 0, 0); fill-opacity: 1; fill-rule: evenodd; stroke: none; stroke-width: 0.5; marker: none; visibility: visible; display: inline; overflow: visible; fill: url(#linearGradient8385-2);"/>
</svg>